%TF.GenerationSoftware,KiCad,Pcbnew,9.0.0*%
%TF.CreationDate,2025-03-18T21:07:25-05:00*%
%TF.ProjectId,PCB SENSORICA 2025,50434220-5345-44e5-934f-524943412032,rev?*%
%TF.SameCoordinates,Original*%
%TF.FileFunction,Copper,L1,Top*%
%TF.FilePolarity,Positive*%
%FSLAX46Y46*%
G04 Gerber Fmt 4.6, Leading zero omitted, Abs format (unit mm)*
G04 Created by KiCad (PCBNEW 9.0.0) date 2025-03-18 21:07:25*
%MOMM*%
%LPD*%
G01*
G04 APERTURE LIST*
%TA.AperFunction,ComponentPad*%
%ADD10R,3.000000X3.000000*%
%TD*%
%TA.AperFunction,ComponentPad*%
%ADD11C,3.000000*%
%TD*%
%TA.AperFunction,Conductor*%
%ADD12C,1.250000*%
%TD*%
%TA.AperFunction,Conductor*%
%ADD13C,1.000000*%
%TD*%
G04 APERTURE END LIST*
D10*
%TO.P,J6,1,Pin_1*%
%TO.N,/VCC*%
X70000000Y-34800000D03*
D11*
%TO.P,J6,2,Pin_2*%
%TO.N,/GND*%
X70000000Y-29720000D03*
%TD*%
D10*
%TO.P,J1,1,Pin_1*%
%TO.N,/P2*%
X34200000Y-100480000D03*
D11*
%TO.P,J1,2,Pin_2*%
%TO.N,/P3*%
X34200000Y-95400000D03*
%TO.P,J1,3,Pin_3*%
%TO.N,/P5*%
X34200000Y-90320000D03*
%TO.P,J1,4,Pin_4*%
%TO.N,/P6*%
X34200000Y-85240000D03*
%TO.P,J1,5,Pin_5*%
%TO.N,/VCC*%
X34200000Y-80160000D03*
%TO.P,J1,6,Pin_6*%
%TO.N,/GND*%
X34200000Y-75080000D03*
%TO.P,J1,7,Pin_7*%
%TO.N,/VCC*%
X34200000Y-70000000D03*
%TO.P,J1,8,Pin_8*%
%TO.N,/GND*%
X34200000Y-64920000D03*
%TD*%
D10*
%TO.P,J5,1,Pin_1*%
%TO.N,/GND*%
X41880000Y-22600000D03*
D11*
%TO.P,J5,2,Pin_2*%
%TO.N,/P9*%
X46960000Y-22600000D03*
%TO.P,J5,3,Pin_3*%
%TO.N,/P12*%
X52040000Y-22600000D03*
%TO.P,J5,4,Pin_4*%
%TO.N,/VCC*%
X57120000Y-22600000D03*
%TO.P,J5,5,Pin_5*%
%TO.N,/GND*%
X62200000Y-22600000D03*
%TD*%
D10*
%TO.P,J4,1,Pin_1*%
%TO.N,/P11*%
X34200000Y-56900000D03*
D11*
%TO.P,J4,2,Pin_2*%
%TO.N,/P7*%
X34200000Y-51820000D03*
%TO.P,J4,3,Pin_3*%
%TO.N,/P8*%
X34200000Y-46740000D03*
%TO.P,J4,4,Pin_4*%
%TO.N,/P10*%
X34200000Y-41660000D03*
%TO.P,J4,5,Pin_5*%
%TO.N,/VCC*%
X34200000Y-36580000D03*
%TO.P,J4,6,Pin_6*%
%TO.N,/GND*%
X34200000Y-31500000D03*
%TD*%
D10*
%TO.P,J3,1,Pin_1*%
%TO.N,/P9*%
X70000000Y-67400000D03*
D11*
%TO.P,J3,2,Pin_2*%
%TO.N,/P10*%
X70000000Y-62320000D03*
%TO.P,J3,3,Pin_3*%
%TO.N,/P11*%
X70000000Y-57240000D03*
%TO.P,J3,4,Pin_4*%
%TO.N,/P12*%
X70000000Y-52160000D03*
%TO.P,J3,5,Pin_5*%
%TO.N,/GND*%
X70000000Y-47080000D03*
%TO.P,J3,6,Pin_6*%
%TO.N,/VCC*%
X70000000Y-42000000D03*
%TD*%
D10*
%TO.P,J2,1,Pin_1*%
%TO.N,/P2*%
X70200000Y-100600000D03*
D11*
%TO.P,J2,2,Pin_2*%
%TO.N,/P3*%
X70200000Y-95520000D03*
%TO.P,J2,3,Pin_3*%
%TO.N,/P5*%
X70200000Y-90440000D03*
%TO.P,J2,4,Pin_4*%
%TO.N,/P6*%
X70200000Y-85360000D03*
%TO.P,J2,5,Pin_5*%
%TO.N,/P7*%
X70200000Y-80280000D03*
%TO.P,J2,6,Pin_6*%
%TO.N,/P8*%
X70200000Y-75200000D03*
%TD*%
D12*
%TO.N,/P2*%
X70080000Y-100480000D02*
X70200000Y-100600000D01*
X34200000Y-100480000D02*
X70080000Y-100480000D01*
%TO.N,/P3*%
X34200000Y-95400000D02*
X70080000Y-95400000D01*
X70080000Y-95400000D02*
X70200000Y-95520000D01*
%TO.N,/P6*%
X70080000Y-85240000D02*
X70200000Y-85360000D01*
X34200000Y-85240000D02*
X70080000Y-85240000D01*
%TO.N,/P5*%
X70080000Y-90320000D02*
X70200000Y-90440000D01*
X34200000Y-90320000D02*
X70080000Y-90320000D01*
%TO.N,/VCC*%
X57120000Y-20120000D02*
X57120000Y-22600000D01*
X28000000Y-39600000D02*
X28000000Y-21800000D01*
X70000000Y-34800000D02*
X62400000Y-34800000D01*
X34200000Y-70000000D02*
X30200000Y-70000000D01*
X28000000Y-79200000D02*
X28000000Y-67800000D01*
X28000000Y-21800000D02*
X31600000Y-18200000D01*
X28000000Y-40400000D02*
X28000000Y-39600000D01*
X28960000Y-80160000D02*
X28000000Y-79200000D01*
X31020000Y-36580000D02*
X34200000Y-36580000D01*
X28000000Y-67800000D02*
X28000000Y-40400000D01*
X28000000Y-39600000D02*
X31020000Y-36580000D01*
X30200000Y-70000000D02*
X28000000Y-67800000D01*
X31600000Y-18200000D02*
X55200000Y-18200000D01*
X62400000Y-34800000D02*
X57120000Y-29520000D01*
X34200000Y-80160000D02*
X28960000Y-80160000D01*
X57120000Y-29520000D02*
X57120000Y-22600000D01*
X55200000Y-18200000D02*
X57120000Y-20120000D01*
%TO.N,/P8*%
X37940000Y-46740000D02*
X66400000Y-75200000D01*
X66400000Y-75200000D02*
X70200000Y-75200000D01*
X34200000Y-46740000D02*
X37940000Y-46740000D01*
%TO.N,/P7*%
X66480000Y-80280000D02*
X38020000Y-51820000D01*
X70200000Y-80280000D02*
X66480000Y-80280000D01*
X38020000Y-51820000D02*
X34200000Y-51820000D01*
%TO.N,/P10*%
X40940000Y-41660000D02*
X34200000Y-41660000D01*
X61720000Y-62320000D02*
X41000000Y-41600000D01*
X70000000Y-62320000D02*
X61720000Y-62320000D01*
X41000000Y-41600000D02*
X40940000Y-41660000D01*
D13*
%TO.N,/P11*%
X34200000Y-56900000D02*
X31000000Y-53700000D01*
X32800000Y-39200000D02*
X43200000Y-39200000D01*
X31000000Y-53700000D02*
X31000000Y-41000000D01*
X61240000Y-57240000D02*
X70000000Y-57240000D01*
X31000000Y-41000000D02*
X32800000Y-39200000D01*
X43200000Y-39200000D02*
X61240000Y-57240000D01*
%TO.N,/P9*%
X46960000Y-22600000D02*
X46960000Y-37160000D01*
X74200000Y-57000000D02*
X74400000Y-57000000D01*
X74400000Y-57000000D02*
X74400000Y-63000000D01*
X46960000Y-37160000D02*
X64400000Y-54600000D01*
X64400000Y-54600000D02*
X71800000Y-54600000D01*
X71800000Y-54600000D02*
X74200000Y-57000000D01*
X74400000Y-63000000D02*
X70000000Y-67400000D01*
D12*
%TO.N,/P12*%
X70000000Y-52160000D02*
X52040000Y-34200000D01*
X52040000Y-34200000D02*
X52040000Y-22600000D01*
%TD*%
%TA.AperFunction,Conductor*%
%TO.N,/GND*%
G36*
X80562047Y-16019955D02*
G01*
X80607802Y-16072759D01*
X80619007Y-16124821D01*
X80212895Y-107499468D01*
X80192912Y-107566419D01*
X80139906Y-107611939D01*
X80088413Y-107622916D01*
X22402359Y-107398415D01*
X22335397Y-107378470D01*
X22289848Y-107325488D01*
X22278842Y-107274416D01*
X22278842Y-98932135D01*
X32199500Y-98932135D01*
X32199500Y-102027870D01*
X32199501Y-102027876D01*
X32205908Y-102087483D01*
X32256202Y-102222328D01*
X32256206Y-102222335D01*
X32342452Y-102337544D01*
X32342455Y-102337547D01*
X32457664Y-102423793D01*
X32457671Y-102423797D01*
X32592517Y-102474091D01*
X32592516Y-102474091D01*
X32599444Y-102474835D01*
X32652127Y-102480500D01*
X35747872Y-102480499D01*
X35807483Y-102474091D01*
X35942331Y-102423796D01*
X36057546Y-102337546D01*
X36143796Y-102222331D01*
X36194091Y-102087483D01*
X36200500Y-102027873D01*
X36200500Y-101729500D01*
X36220185Y-101662461D01*
X36272989Y-101616706D01*
X36324500Y-101605500D01*
X68075501Y-101605500D01*
X68142540Y-101625185D01*
X68188295Y-101677989D01*
X68199501Y-101729500D01*
X68199501Y-102147876D01*
X68205908Y-102207483D01*
X68256202Y-102342328D01*
X68256206Y-102342335D01*
X68342452Y-102457544D01*
X68342455Y-102457547D01*
X68457664Y-102543793D01*
X68457671Y-102543797D01*
X68592517Y-102594091D01*
X68592516Y-102594091D01*
X68599444Y-102594835D01*
X68652127Y-102600500D01*
X71747872Y-102600499D01*
X71807483Y-102594091D01*
X71942331Y-102543796D01*
X72057546Y-102457546D01*
X72143796Y-102342331D01*
X72194091Y-102207483D01*
X72200500Y-102147873D01*
X72200499Y-99052128D01*
X72194091Y-98992517D01*
X72171567Y-98932128D01*
X72143797Y-98857671D01*
X72143793Y-98857664D01*
X72057547Y-98742455D01*
X72057544Y-98742452D01*
X71942335Y-98656206D01*
X71942328Y-98656202D01*
X71807482Y-98605908D01*
X71807483Y-98605908D01*
X71747883Y-98599501D01*
X71747881Y-98599500D01*
X71747873Y-98599500D01*
X71747864Y-98599500D01*
X68652129Y-98599500D01*
X68652123Y-98599501D01*
X68592516Y-98605908D01*
X68457671Y-98656202D01*
X68457664Y-98656206D01*
X68342455Y-98742452D01*
X68342452Y-98742455D01*
X68256206Y-98857664D01*
X68256202Y-98857671D01*
X68205908Y-98992517D01*
X68199501Y-99052116D01*
X68199501Y-99052123D01*
X68199500Y-99052135D01*
X68199500Y-99230500D01*
X68179815Y-99297539D01*
X68127011Y-99343294D01*
X68075500Y-99354500D01*
X36324499Y-99354500D01*
X36257460Y-99334815D01*
X36211705Y-99282011D01*
X36200499Y-99230500D01*
X36200499Y-98932129D01*
X36200498Y-98932123D01*
X36200497Y-98932116D01*
X36194091Y-98872517D01*
X36188551Y-98857664D01*
X36143797Y-98737671D01*
X36143793Y-98737664D01*
X36057547Y-98622455D01*
X36057544Y-98622452D01*
X35942335Y-98536206D01*
X35942328Y-98536202D01*
X35807482Y-98485908D01*
X35807483Y-98485908D01*
X35747883Y-98479501D01*
X35747881Y-98479500D01*
X35747873Y-98479500D01*
X35747864Y-98479500D01*
X32652129Y-98479500D01*
X32652123Y-98479501D01*
X32592516Y-98485908D01*
X32457671Y-98536202D01*
X32457664Y-98536206D01*
X32342455Y-98622452D01*
X32342452Y-98622455D01*
X32256206Y-98737664D01*
X32256202Y-98737671D01*
X32205908Y-98872517D01*
X32199501Y-98932116D01*
X32199501Y-98932123D01*
X32199500Y-98932135D01*
X22278842Y-98932135D01*
X22278842Y-95268872D01*
X32199500Y-95268872D01*
X32199500Y-95531127D01*
X32226123Y-95733339D01*
X32233730Y-95791116D01*
X32265884Y-95911116D01*
X32301602Y-96044418D01*
X32301605Y-96044428D01*
X32401953Y-96286690D01*
X32401958Y-96286700D01*
X32533075Y-96513803D01*
X32692718Y-96721851D01*
X32692726Y-96721860D01*
X32878140Y-96907274D01*
X32878148Y-96907281D01*
X33086196Y-97066924D01*
X33313299Y-97198041D01*
X33313309Y-97198046D01*
X33555571Y-97298394D01*
X33555581Y-97298398D01*
X33808884Y-97366270D01*
X34068880Y-97400500D01*
X34068887Y-97400500D01*
X34331113Y-97400500D01*
X34331120Y-97400500D01*
X34591116Y-97366270D01*
X34844419Y-97298398D01*
X35086697Y-97198043D01*
X35313803Y-97066924D01*
X35521851Y-96907282D01*
X35521855Y-96907277D01*
X35521860Y-96907274D01*
X35707274Y-96721860D01*
X35707277Y-96721855D01*
X35707282Y-96721851D01*
X35820723Y-96574012D01*
X35877151Y-96532811D01*
X35919098Y-96525500D01*
X68398956Y-96525500D01*
X68465995Y-96545185D01*
X68506344Y-96587501D01*
X68533077Y-96633805D01*
X68692718Y-96841851D01*
X68692726Y-96841860D01*
X68878140Y-97027274D01*
X68878148Y-97027281D01*
X69086196Y-97186924D01*
X69313299Y-97318041D01*
X69313309Y-97318046D01*
X69512369Y-97400499D01*
X69555581Y-97418398D01*
X69808884Y-97486270D01*
X70068880Y-97520500D01*
X70068887Y-97520500D01*
X70331113Y-97520500D01*
X70331120Y-97520500D01*
X70591116Y-97486270D01*
X70844419Y-97418398D01*
X71086697Y-97318043D01*
X71313803Y-97186924D01*
X71521851Y-97027282D01*
X71521855Y-97027277D01*
X71521860Y-97027274D01*
X71707274Y-96841860D01*
X71707277Y-96841855D01*
X71707282Y-96841851D01*
X71866924Y-96633803D01*
X71998043Y-96406697D01*
X72098398Y-96164419D01*
X72166270Y-95911116D01*
X72200500Y-95651120D01*
X72200500Y-95388880D01*
X72166270Y-95128884D01*
X72098398Y-94875581D01*
X72098394Y-94875571D01*
X71998046Y-94633309D01*
X71998041Y-94633299D01*
X71866924Y-94406196D01*
X71707281Y-94198148D01*
X71707274Y-94198140D01*
X71521860Y-94012726D01*
X71521851Y-94012718D01*
X71313803Y-93853075D01*
X71086700Y-93721958D01*
X71086690Y-93721953D01*
X70844428Y-93621605D01*
X70844421Y-93621603D01*
X70844419Y-93621602D01*
X70591116Y-93553730D01*
X70533339Y-93546123D01*
X70331127Y-93519500D01*
X70331120Y-93519500D01*
X70068880Y-93519500D01*
X70068872Y-93519500D01*
X69837772Y-93549926D01*
X69808884Y-93553730D01*
X69628894Y-93601958D01*
X69555581Y-93621602D01*
X69555571Y-93621605D01*
X69313309Y-93721953D01*
X69313299Y-93721958D01*
X69086196Y-93853075D01*
X68878148Y-94012718D01*
X68878140Y-94012725D01*
X68692723Y-94198143D01*
X68692714Y-94198153D01*
X68671357Y-94225987D01*
X68614929Y-94267190D01*
X68572982Y-94274500D01*
X35919098Y-94274500D01*
X35852059Y-94254815D01*
X35820723Y-94225987D01*
X35799357Y-94198143D01*
X35707282Y-94078149D01*
X35707281Y-94078148D01*
X35707274Y-94078140D01*
X35521860Y-93892726D01*
X35521851Y-93892718D01*
X35313803Y-93733075D01*
X35086700Y-93601958D01*
X35086690Y-93601953D01*
X34844428Y-93501605D01*
X34844421Y-93501603D01*
X34844419Y-93501602D01*
X34591116Y-93433730D01*
X34533339Y-93426123D01*
X34331127Y-93399500D01*
X34331120Y-93399500D01*
X34068880Y-93399500D01*
X34068872Y-93399500D01*
X33837772Y-93429926D01*
X33808884Y-93433730D01*
X33555581Y-93501602D01*
X33555571Y-93501605D01*
X33313309Y-93601953D01*
X33313299Y-93601958D01*
X33086196Y-93733075D01*
X32878148Y-93892718D01*
X32692718Y-94078148D01*
X32533075Y-94286196D01*
X32401958Y-94513299D01*
X32401953Y-94513309D01*
X32301605Y-94755571D01*
X32301602Y-94755581D01*
X32233730Y-95008885D01*
X32199500Y-95268872D01*
X22278842Y-95268872D01*
X22278842Y-90188872D01*
X32199500Y-90188872D01*
X32199500Y-90451127D01*
X32226123Y-90653339D01*
X32233730Y-90711116D01*
X32265884Y-90831116D01*
X32301602Y-90964418D01*
X32301605Y-90964428D01*
X32401953Y-91206690D01*
X32401958Y-91206700D01*
X32533075Y-91433803D01*
X32692718Y-91641851D01*
X32692726Y-91641860D01*
X32878140Y-91827274D01*
X32878148Y-91827281D01*
X33086196Y-91986924D01*
X33313299Y-92118041D01*
X33313309Y-92118046D01*
X33555571Y-92218394D01*
X33555581Y-92218398D01*
X33808884Y-92286270D01*
X34068880Y-92320500D01*
X34068887Y-92320500D01*
X34331113Y-92320500D01*
X34331120Y-92320500D01*
X34591116Y-92286270D01*
X34844419Y-92218398D01*
X35086697Y-92118043D01*
X35313803Y-91986924D01*
X35521851Y-91827282D01*
X35521855Y-91827277D01*
X35521860Y-91827274D01*
X35707274Y-91641860D01*
X35707277Y-91641855D01*
X35707282Y-91641851D01*
X35820723Y-91494012D01*
X35877151Y-91452811D01*
X35919098Y-91445500D01*
X68398956Y-91445500D01*
X68465995Y-91465185D01*
X68506344Y-91507501D01*
X68533077Y-91553805D01*
X68692718Y-91761851D01*
X68692726Y-91761860D01*
X68878140Y-91947274D01*
X68878148Y-91947281D01*
X69086196Y-92106924D01*
X69313299Y-92238041D01*
X69313309Y-92238046D01*
X69512369Y-92320499D01*
X69555581Y-92338398D01*
X69808884Y-92406270D01*
X70068880Y-92440500D01*
X70068887Y-92440500D01*
X70331113Y-92440500D01*
X70331120Y-92440500D01*
X70591116Y-92406270D01*
X70844419Y-92338398D01*
X71086697Y-92238043D01*
X71313803Y-92106924D01*
X71521851Y-91947282D01*
X71521855Y-91947277D01*
X71521860Y-91947274D01*
X71707274Y-91761860D01*
X71707277Y-91761855D01*
X71707282Y-91761851D01*
X71866924Y-91553803D01*
X71998043Y-91326697D01*
X72098398Y-91084419D01*
X72166270Y-90831116D01*
X72200500Y-90571120D01*
X72200500Y-90308880D01*
X72166270Y-90048884D01*
X72098398Y-89795581D01*
X72098394Y-89795571D01*
X71998046Y-89553309D01*
X71998041Y-89553299D01*
X71866924Y-89326196D01*
X71707281Y-89118148D01*
X71707274Y-89118140D01*
X71521860Y-88932726D01*
X71521851Y-88932718D01*
X71313803Y-88773075D01*
X71086700Y-88641958D01*
X71086690Y-88641953D01*
X70844428Y-88541605D01*
X70844421Y-88541603D01*
X70844419Y-88541602D01*
X70591116Y-88473730D01*
X70533339Y-88466123D01*
X70331127Y-88439500D01*
X70331120Y-88439500D01*
X70068880Y-88439500D01*
X70068872Y-88439500D01*
X69837772Y-88469926D01*
X69808884Y-88473730D01*
X69628894Y-88521958D01*
X69555581Y-88541602D01*
X69555571Y-88541605D01*
X69313309Y-88641953D01*
X69313299Y-88641958D01*
X69086196Y-88773075D01*
X68878148Y-88932718D01*
X68878140Y-88932725D01*
X68692723Y-89118143D01*
X68692714Y-89118153D01*
X68671357Y-89145987D01*
X68614929Y-89187190D01*
X68572982Y-89194500D01*
X35919098Y-89194500D01*
X35852059Y-89174815D01*
X35820723Y-89145987D01*
X35799357Y-89118143D01*
X35707282Y-88998149D01*
X35707281Y-88998148D01*
X35707274Y-88998140D01*
X35521860Y-88812726D01*
X35521851Y-88812718D01*
X35313803Y-88653075D01*
X35086700Y-88521958D01*
X35086690Y-88521953D01*
X34844428Y-88421605D01*
X34844421Y-88421603D01*
X34844419Y-88421602D01*
X34591116Y-88353730D01*
X34533339Y-88346123D01*
X34331127Y-88319500D01*
X34331120Y-88319500D01*
X34068880Y-88319500D01*
X34068872Y-88319500D01*
X33837772Y-88349926D01*
X33808884Y-88353730D01*
X33555581Y-88421602D01*
X33555571Y-88421605D01*
X33313309Y-88521953D01*
X33313299Y-88521958D01*
X33086196Y-88653075D01*
X32878148Y-88812718D01*
X32692718Y-88998148D01*
X32533075Y-89206196D01*
X32401958Y-89433299D01*
X32401953Y-89433309D01*
X32301605Y-89675571D01*
X32301602Y-89675581D01*
X32233730Y-89928885D01*
X32199500Y-90188872D01*
X22278842Y-90188872D01*
X22278842Y-85108872D01*
X32199500Y-85108872D01*
X32199500Y-85371127D01*
X32226123Y-85573339D01*
X32233730Y-85631116D01*
X32265884Y-85751116D01*
X32301602Y-85884418D01*
X32301605Y-85884428D01*
X32401953Y-86126690D01*
X32401958Y-86126700D01*
X32533075Y-86353803D01*
X32692718Y-86561851D01*
X32692726Y-86561860D01*
X32878140Y-86747274D01*
X32878148Y-86747281D01*
X33086196Y-86906924D01*
X33313299Y-87038041D01*
X33313309Y-87038046D01*
X33555571Y-87138394D01*
X33555581Y-87138398D01*
X33808884Y-87206270D01*
X34068880Y-87240500D01*
X34068887Y-87240500D01*
X34331113Y-87240500D01*
X34331120Y-87240500D01*
X34591116Y-87206270D01*
X34844419Y-87138398D01*
X35086697Y-87038043D01*
X35313803Y-86906924D01*
X35521851Y-86747282D01*
X35521855Y-86747277D01*
X35521860Y-86747274D01*
X35707274Y-86561860D01*
X35707277Y-86561855D01*
X35707282Y-86561851D01*
X35820723Y-86414012D01*
X35877151Y-86372811D01*
X35919098Y-86365500D01*
X68398956Y-86365500D01*
X68465995Y-86385185D01*
X68506344Y-86427501D01*
X68533077Y-86473805D01*
X68692718Y-86681851D01*
X68692726Y-86681860D01*
X68878140Y-86867274D01*
X68878148Y-86867281D01*
X69086196Y-87026924D01*
X69313299Y-87158041D01*
X69313309Y-87158046D01*
X69512369Y-87240499D01*
X69555581Y-87258398D01*
X69808884Y-87326270D01*
X70068880Y-87360500D01*
X70068887Y-87360500D01*
X70331113Y-87360500D01*
X70331120Y-87360500D01*
X70591116Y-87326270D01*
X70844419Y-87258398D01*
X71086697Y-87158043D01*
X71313803Y-87026924D01*
X71521851Y-86867282D01*
X71521855Y-86867277D01*
X71521860Y-86867274D01*
X71707274Y-86681860D01*
X71707277Y-86681855D01*
X71707282Y-86681851D01*
X71866924Y-86473803D01*
X71998043Y-86246697D01*
X72098398Y-86004419D01*
X72166270Y-85751116D01*
X72200500Y-85491120D01*
X72200500Y-85228880D01*
X72166270Y-84968884D01*
X72098398Y-84715581D01*
X72098394Y-84715571D01*
X71998046Y-84473309D01*
X71998041Y-84473299D01*
X71866924Y-84246196D01*
X71707281Y-84038148D01*
X71707274Y-84038140D01*
X71521860Y-83852726D01*
X71521851Y-83852718D01*
X71313803Y-83693075D01*
X71086700Y-83561958D01*
X71086690Y-83561953D01*
X70844428Y-83461605D01*
X70844421Y-83461603D01*
X70844419Y-83461602D01*
X70591116Y-83393730D01*
X70533339Y-83386123D01*
X70331127Y-83359500D01*
X70331120Y-83359500D01*
X70068880Y-83359500D01*
X70068872Y-83359500D01*
X69837772Y-83389926D01*
X69808884Y-83393730D01*
X69628894Y-83441958D01*
X69555581Y-83461602D01*
X69555571Y-83461605D01*
X69313309Y-83561953D01*
X69313299Y-83561958D01*
X69086196Y-83693075D01*
X68878148Y-83852718D01*
X68878140Y-83852725D01*
X68692723Y-84038143D01*
X68692714Y-84038153D01*
X68671357Y-84065987D01*
X68614929Y-84107190D01*
X68572982Y-84114500D01*
X35919098Y-84114500D01*
X35852059Y-84094815D01*
X35820723Y-84065987D01*
X35799357Y-84038143D01*
X35707282Y-83918149D01*
X35707281Y-83918148D01*
X35707274Y-83918140D01*
X35521860Y-83732726D01*
X35521851Y-83732718D01*
X35313803Y-83573075D01*
X35086700Y-83441958D01*
X35086690Y-83441953D01*
X34844428Y-83341605D01*
X34844421Y-83341603D01*
X34844419Y-83341602D01*
X34591116Y-83273730D01*
X34533339Y-83266123D01*
X34331127Y-83239500D01*
X34331120Y-83239500D01*
X34068880Y-83239500D01*
X34068872Y-83239500D01*
X33837772Y-83269926D01*
X33808884Y-83273730D01*
X33555581Y-83341602D01*
X33555571Y-83341605D01*
X33313309Y-83441953D01*
X33313299Y-83441958D01*
X33086196Y-83573075D01*
X32878148Y-83732718D01*
X32692718Y-83918148D01*
X32533075Y-84126196D01*
X32401958Y-84353299D01*
X32401953Y-84353309D01*
X32301605Y-84595571D01*
X32301602Y-84595581D01*
X32233730Y-84848885D01*
X32199500Y-85108872D01*
X22278842Y-85108872D01*
X22278842Y-21711421D01*
X26874500Y-21711421D01*
X26874500Y-79288578D01*
X26902213Y-79463552D01*
X26902213Y-79463553D01*
X26919118Y-79515581D01*
X26919118Y-79515582D01*
X26956955Y-79632036D01*
X26956957Y-79632042D01*
X27026683Y-79768884D01*
X27037386Y-79789890D01*
X27114802Y-79896444D01*
X27141517Y-79933214D01*
X28101517Y-80893214D01*
X28226786Y-81018483D01*
X28370110Y-81122614D01*
X28447529Y-81162061D01*
X28527957Y-81203042D01*
X28527960Y-81203043D01*
X28612201Y-81230414D01*
X28696444Y-81257786D01*
X28871421Y-81285500D01*
X32480902Y-81285500D01*
X32547941Y-81305185D01*
X32579277Y-81334013D01*
X32692718Y-81481851D01*
X32692726Y-81481860D01*
X32878140Y-81667274D01*
X32878148Y-81667281D01*
X33086196Y-81826924D01*
X33313299Y-81958041D01*
X33313309Y-81958046D01*
X33555571Y-82058394D01*
X33555581Y-82058398D01*
X33808884Y-82126270D01*
X34068880Y-82160500D01*
X34068887Y-82160500D01*
X34331113Y-82160500D01*
X34331120Y-82160500D01*
X34591116Y-82126270D01*
X34844419Y-82058398D01*
X35086697Y-81958043D01*
X35313803Y-81826924D01*
X35521851Y-81667282D01*
X35521855Y-81667277D01*
X35521860Y-81667274D01*
X35707274Y-81481860D01*
X35707277Y-81481855D01*
X35707282Y-81481851D01*
X35866924Y-81273803D01*
X35998043Y-81046697D01*
X36098398Y-80804419D01*
X36166270Y-80551116D01*
X36200500Y-80291120D01*
X36200500Y-80028880D01*
X36166270Y-79768884D01*
X36098398Y-79515581D01*
X36076847Y-79463552D01*
X35998046Y-79273309D01*
X35998041Y-79273299D01*
X35866924Y-79046196D01*
X35707281Y-78838148D01*
X35707274Y-78838140D01*
X35521860Y-78652726D01*
X35521851Y-78652718D01*
X35313803Y-78493075D01*
X35086700Y-78361958D01*
X35086690Y-78361953D01*
X34844428Y-78261605D01*
X34844421Y-78261603D01*
X34844419Y-78261602D01*
X34591116Y-78193730D01*
X34533339Y-78186123D01*
X34331127Y-78159500D01*
X34331120Y-78159500D01*
X34068880Y-78159500D01*
X34068872Y-78159500D01*
X33837772Y-78189926D01*
X33808884Y-78193730D01*
X33555581Y-78261602D01*
X33555571Y-78261605D01*
X33313309Y-78361953D01*
X33313299Y-78361958D01*
X33086196Y-78493075D01*
X32878148Y-78652718D01*
X32692718Y-78838148D01*
X32579277Y-78985987D01*
X32522849Y-79027189D01*
X32480902Y-79034500D01*
X29477559Y-79034500D01*
X29410520Y-79014815D01*
X29389878Y-78998181D01*
X29161819Y-78770122D01*
X29128334Y-78708799D01*
X29125500Y-78682441D01*
X29125500Y-74948905D01*
X32200000Y-74948905D01*
X32200000Y-75211094D01*
X32234220Y-75471009D01*
X32234222Y-75471020D01*
X32302075Y-75724255D01*
X32402404Y-75966471D01*
X32402409Y-75966482D01*
X32533488Y-76193516D01*
X32533494Y-76193524D01*
X32620080Y-76306365D01*
X33514767Y-75411677D01*
X33526497Y-75439995D01*
X33609670Y-75564472D01*
X33715528Y-75670330D01*
X33840005Y-75753503D01*
X33868320Y-75765231D01*
X32973633Y-76659917D01*
X32973633Y-76659918D01*
X33086475Y-76746505D01*
X33086483Y-76746511D01*
X33313517Y-76877590D01*
X33313528Y-76877595D01*
X33555744Y-76977924D01*
X33808979Y-77045777D01*
X33808990Y-77045779D01*
X34068905Y-77079999D01*
X34068920Y-77080000D01*
X34331080Y-77080000D01*
X34331094Y-77079999D01*
X34591009Y-77045779D01*
X34591020Y-77045777D01*
X34844255Y-76977924D01*
X35086471Y-76877595D01*
X35086482Y-76877590D01*
X35313516Y-76746511D01*
X35313534Y-76746499D01*
X35426365Y-76659919D01*
X35426365Y-76659917D01*
X34531679Y-75765231D01*
X34559995Y-75753503D01*
X34684472Y-75670330D01*
X34790330Y-75564472D01*
X34873503Y-75439995D01*
X34885231Y-75411679D01*
X35779917Y-76306365D01*
X35779919Y-76306365D01*
X35866499Y-76193534D01*
X35866511Y-76193516D01*
X35997590Y-75966482D01*
X35997595Y-75966471D01*
X36097924Y-75724255D01*
X36165777Y-75471020D01*
X36165779Y-75471009D01*
X36199999Y-75211094D01*
X36200000Y-75211080D01*
X36200000Y-74948919D01*
X36199999Y-74948905D01*
X36165779Y-74688990D01*
X36165777Y-74688979D01*
X36097924Y-74435744D01*
X35997595Y-74193528D01*
X35997590Y-74193517D01*
X35866511Y-73966483D01*
X35866505Y-73966475D01*
X35779918Y-73853633D01*
X35779917Y-73853633D01*
X34885231Y-74748320D01*
X34873503Y-74720005D01*
X34790330Y-74595528D01*
X34684472Y-74489670D01*
X34559995Y-74406497D01*
X34531677Y-74394767D01*
X35426365Y-73500080D01*
X35313524Y-73413494D01*
X35313516Y-73413488D01*
X35086482Y-73282409D01*
X35086471Y-73282404D01*
X34844255Y-73182075D01*
X34591020Y-73114222D01*
X34591009Y-73114220D01*
X34331094Y-73080000D01*
X34068905Y-73080000D01*
X33808990Y-73114220D01*
X33808979Y-73114222D01*
X33555744Y-73182075D01*
X33313528Y-73282404D01*
X33313517Y-73282409D01*
X33086471Y-73413496D01*
X32973633Y-73500079D01*
X32973633Y-73500080D01*
X33868321Y-74394768D01*
X33840005Y-74406497D01*
X33715528Y-74489670D01*
X33609670Y-74595528D01*
X33526497Y-74720005D01*
X33514768Y-74748321D01*
X32620080Y-73853633D01*
X32620079Y-73853633D01*
X32533496Y-73966471D01*
X32402409Y-74193517D01*
X32402404Y-74193528D01*
X32302075Y-74435744D01*
X32234222Y-74688979D01*
X32234220Y-74688990D01*
X32200000Y-74948905D01*
X29125500Y-74948905D01*
X29125500Y-70816559D01*
X29145185Y-70749520D01*
X29197989Y-70703765D01*
X29267147Y-70693821D01*
X29330703Y-70722846D01*
X29337158Y-70728856D01*
X29466786Y-70858484D01*
X29610110Y-70962614D01*
X29767957Y-71043042D01*
X29767960Y-71043043D01*
X29852201Y-71070414D01*
X29936444Y-71097786D01*
X30023933Y-71111643D01*
X30111421Y-71125500D01*
X30111422Y-71125500D01*
X30288579Y-71125500D01*
X32480902Y-71125500D01*
X32547941Y-71145185D01*
X32579277Y-71174013D01*
X32692718Y-71321851D01*
X32692726Y-71321860D01*
X32878140Y-71507274D01*
X32878148Y-71507281D01*
X33086196Y-71666924D01*
X33313299Y-71798041D01*
X33313309Y-71798046D01*
X33555571Y-71898394D01*
X33555581Y-71898398D01*
X33808884Y-71966270D01*
X34068880Y-72000500D01*
X34068887Y-72000500D01*
X34331113Y-72000500D01*
X34331120Y-72000500D01*
X34591116Y-71966270D01*
X34844419Y-71898398D01*
X35086697Y-71798043D01*
X35313803Y-71666924D01*
X35521851Y-71507282D01*
X35521855Y-71507277D01*
X35521860Y-71507274D01*
X35707274Y-71321860D01*
X35707277Y-71321855D01*
X35707282Y-71321851D01*
X35866924Y-71113803D01*
X35998043Y-70886697D01*
X36098398Y-70644419D01*
X36166270Y-70391116D01*
X36200500Y-70131120D01*
X36200500Y-69868880D01*
X36166270Y-69608884D01*
X36098398Y-69355581D01*
X36093517Y-69343797D01*
X35998046Y-69113309D01*
X35998041Y-69113299D01*
X35866924Y-68886196D01*
X35707281Y-68678148D01*
X35707274Y-68678140D01*
X35521860Y-68492726D01*
X35521851Y-68492718D01*
X35313803Y-68333075D01*
X35086700Y-68201958D01*
X35086690Y-68201953D01*
X34844428Y-68101605D01*
X34844421Y-68101603D01*
X34844419Y-68101602D01*
X34591116Y-68033730D01*
X34533339Y-68026123D01*
X34331127Y-67999500D01*
X34331120Y-67999500D01*
X34068880Y-67999500D01*
X34068872Y-67999500D01*
X33837772Y-68029926D01*
X33808884Y-68033730D01*
X33555581Y-68101602D01*
X33555571Y-68101605D01*
X33313309Y-68201953D01*
X33313299Y-68201958D01*
X33086196Y-68333075D01*
X32878148Y-68492718D01*
X32692718Y-68678148D01*
X32579277Y-68825987D01*
X32522849Y-68867189D01*
X32480902Y-68874500D01*
X30717560Y-68874500D01*
X30650521Y-68854815D01*
X30629879Y-68838181D01*
X29161819Y-67370121D01*
X29128334Y-67308798D01*
X29125500Y-67282440D01*
X29125500Y-64788905D01*
X32200000Y-64788905D01*
X32200000Y-65051094D01*
X32234220Y-65311009D01*
X32234222Y-65311020D01*
X32302075Y-65564255D01*
X32402404Y-65806471D01*
X32402409Y-65806482D01*
X32533488Y-66033516D01*
X32533494Y-66033524D01*
X32620080Y-66146365D01*
X33514767Y-65251677D01*
X33526497Y-65279995D01*
X33609670Y-65404472D01*
X33715528Y-65510330D01*
X33840005Y-65593503D01*
X33868320Y-65605231D01*
X32973633Y-66499917D01*
X32973633Y-66499918D01*
X33086475Y-66586505D01*
X33086483Y-66586511D01*
X33313517Y-66717590D01*
X33313528Y-66717595D01*
X33555744Y-66817924D01*
X33808979Y-66885777D01*
X33808990Y-66885779D01*
X34068905Y-66919999D01*
X34068920Y-66920000D01*
X34331080Y-66920000D01*
X34331094Y-66919999D01*
X34591009Y-66885779D01*
X34591020Y-66885777D01*
X34844255Y-66817924D01*
X35086471Y-66717595D01*
X35086482Y-66717590D01*
X35313516Y-66586511D01*
X35313534Y-66586499D01*
X35426365Y-66499919D01*
X35426365Y-66499917D01*
X34531679Y-65605231D01*
X34559995Y-65593503D01*
X34684472Y-65510330D01*
X34790330Y-65404472D01*
X34873503Y-65279995D01*
X34885231Y-65251679D01*
X35779917Y-66146365D01*
X35779919Y-66146365D01*
X35866499Y-66033534D01*
X35866511Y-66033516D01*
X35997590Y-65806482D01*
X35997595Y-65806471D01*
X36097924Y-65564255D01*
X36165777Y-65311020D01*
X36165779Y-65311009D01*
X36199999Y-65051094D01*
X36200000Y-65051080D01*
X36200000Y-64788919D01*
X36199999Y-64788905D01*
X36165779Y-64528990D01*
X36165777Y-64528979D01*
X36097924Y-64275744D01*
X35997595Y-64033528D01*
X35997590Y-64033517D01*
X35866511Y-63806483D01*
X35866505Y-63806475D01*
X35779918Y-63693633D01*
X35779917Y-63693633D01*
X34885231Y-64588320D01*
X34873503Y-64560005D01*
X34790330Y-64435528D01*
X34684472Y-64329670D01*
X34559995Y-64246497D01*
X34531677Y-64234767D01*
X35426365Y-63340080D01*
X35313524Y-63253494D01*
X35313516Y-63253488D01*
X35086482Y-63122409D01*
X35086471Y-63122404D01*
X34844255Y-63022075D01*
X34591020Y-62954222D01*
X34591009Y-62954220D01*
X34331094Y-62920000D01*
X34068905Y-62920000D01*
X33808990Y-62954220D01*
X33808979Y-62954222D01*
X33555744Y-63022075D01*
X33313528Y-63122404D01*
X33313517Y-63122409D01*
X33086471Y-63253496D01*
X32973633Y-63340079D01*
X32973633Y-63340080D01*
X33868321Y-64234768D01*
X33840005Y-64246497D01*
X33715528Y-64329670D01*
X33609670Y-64435528D01*
X33526497Y-64560005D01*
X33514768Y-64588321D01*
X32620080Y-63693633D01*
X32620079Y-63693633D01*
X32533496Y-63806471D01*
X32402409Y-64033517D01*
X32402404Y-64033528D01*
X32302075Y-64275744D01*
X32234222Y-64528979D01*
X32234220Y-64528990D01*
X32200000Y-64788905D01*
X29125500Y-64788905D01*
X29125500Y-40117559D01*
X29145185Y-40050520D01*
X29161819Y-40029878D01*
X31449879Y-37741819D01*
X31511202Y-37708334D01*
X31537560Y-37705500D01*
X32480902Y-37705500D01*
X32547941Y-37725185D01*
X32579277Y-37754013D01*
X32692718Y-37901851D01*
X32692726Y-37901860D01*
X32779076Y-37988210D01*
X32812561Y-38049533D01*
X32807577Y-38119225D01*
X32765705Y-38175158D01*
X32707336Y-38197823D01*
X32707433Y-38198311D01*
X32704659Y-38198862D01*
X32703549Y-38199294D01*
X32701453Y-38199500D01*
X32508170Y-38237947D01*
X32508160Y-38237950D01*
X32486496Y-38246924D01*
X32326083Y-38313369D01*
X32162222Y-38422857D01*
X32162214Y-38422863D01*
X30585579Y-39999500D01*
X30362220Y-40222859D01*
X30362218Y-40222861D01*
X30318706Y-40266373D01*
X30222859Y-40362219D01*
X30113371Y-40526079D01*
X30113364Y-40526092D01*
X30067266Y-40637386D01*
X30067266Y-40637387D01*
X30042414Y-40697386D01*
X30037949Y-40708165D01*
X30037947Y-40708170D01*
X30037947Y-40708171D01*
X29999500Y-40901454D01*
X29999500Y-40901459D01*
X29999500Y-53798541D01*
X29999500Y-53798543D01*
X29999499Y-53798543D01*
X30037947Y-53991829D01*
X30037950Y-53991839D01*
X30113364Y-54173907D01*
X30113371Y-54173920D01*
X30222859Y-54337780D01*
X30222860Y-54337781D01*
X30222861Y-54337782D01*
X30362218Y-54477139D01*
X30362219Y-54477139D01*
X30369286Y-54484206D01*
X30369285Y-54484206D01*
X30369289Y-54484209D01*
X32163181Y-56278101D01*
X32196666Y-56339424D01*
X32199500Y-56365782D01*
X32199500Y-58447870D01*
X32199501Y-58447876D01*
X32205908Y-58507483D01*
X32256202Y-58642328D01*
X32256206Y-58642335D01*
X32342452Y-58757544D01*
X32342455Y-58757547D01*
X32457664Y-58843793D01*
X32457671Y-58843797D01*
X32592517Y-58894091D01*
X32592516Y-58894091D01*
X32599444Y-58894835D01*
X32652127Y-58900500D01*
X35747872Y-58900499D01*
X35807483Y-58894091D01*
X35942331Y-58843796D01*
X36057546Y-58757546D01*
X36143796Y-58642331D01*
X36194091Y-58507483D01*
X36200500Y-58447873D01*
X36200499Y-55352128D01*
X36194091Y-55292517D01*
X36143796Y-55157669D01*
X36143795Y-55157668D01*
X36143793Y-55157664D01*
X36057547Y-55042455D01*
X36057544Y-55042452D01*
X35942335Y-54956206D01*
X35942328Y-54956202D01*
X35807482Y-54905908D01*
X35807483Y-54905908D01*
X35747883Y-54899501D01*
X35747881Y-54899500D01*
X35747873Y-54899500D01*
X35747865Y-54899500D01*
X33665783Y-54899500D01*
X33598744Y-54879815D01*
X33578102Y-54863181D01*
X32036819Y-53321898D01*
X32003334Y-53260575D01*
X32000500Y-53234217D01*
X32000500Y-52282562D01*
X32020185Y-52215523D01*
X32072989Y-52169768D01*
X32142147Y-52159824D01*
X32205703Y-52188849D01*
X32243477Y-52247627D01*
X32244275Y-52250469D01*
X32301602Y-52464418D01*
X32301605Y-52464428D01*
X32401953Y-52706690D01*
X32401958Y-52706700D01*
X32533075Y-52933803D01*
X32692718Y-53141851D01*
X32692726Y-53141860D01*
X32878140Y-53327274D01*
X32878148Y-53327281D01*
X33086196Y-53486924D01*
X33313299Y-53618041D01*
X33313309Y-53618046D01*
X33555571Y-53718394D01*
X33555581Y-53718398D01*
X33808884Y-53786270D01*
X34068880Y-53820500D01*
X34068887Y-53820500D01*
X34331113Y-53820500D01*
X34331120Y-53820500D01*
X34591116Y-53786270D01*
X34844419Y-53718398D01*
X35086697Y-53618043D01*
X35313803Y-53486924D01*
X35521851Y-53327282D01*
X35521855Y-53327277D01*
X35521860Y-53327274D01*
X35707274Y-53141860D01*
X35707277Y-53141855D01*
X35707282Y-53141851D01*
X35820723Y-52994012D01*
X35877151Y-52952811D01*
X35919098Y-52945500D01*
X37502441Y-52945500D01*
X37569480Y-52965185D01*
X37590122Y-52981819D01*
X65746781Y-81138480D01*
X65746783Y-81138482D01*
X65746786Y-81138484D01*
X65785619Y-81166697D01*
X65890110Y-81242614D01*
X65919885Y-81257785D01*
X66047957Y-81323042D01*
X66047960Y-81323043D01*
X66132201Y-81350414D01*
X66216444Y-81377786D01*
X66391421Y-81405500D01*
X68480902Y-81405500D01*
X68547941Y-81425185D01*
X68579277Y-81454013D01*
X68692718Y-81601851D01*
X68692726Y-81601860D01*
X68878140Y-81787274D01*
X68878148Y-81787281D01*
X69086196Y-81946924D01*
X69313299Y-82078041D01*
X69313309Y-82078046D01*
X69512369Y-82160499D01*
X69555581Y-82178398D01*
X69808884Y-82246270D01*
X70068880Y-82280500D01*
X70068887Y-82280500D01*
X70331113Y-82280500D01*
X70331120Y-82280500D01*
X70591116Y-82246270D01*
X70844419Y-82178398D01*
X71086697Y-82078043D01*
X71313803Y-81946924D01*
X71521851Y-81787282D01*
X71521855Y-81787277D01*
X71521860Y-81787274D01*
X71707274Y-81601860D01*
X71707277Y-81601855D01*
X71707282Y-81601851D01*
X71866924Y-81393803D01*
X71998043Y-81166697D01*
X72098398Y-80924419D01*
X72166270Y-80671116D01*
X72200500Y-80411120D01*
X72200500Y-80148880D01*
X72166270Y-79888884D01*
X72098398Y-79635581D01*
X72048693Y-79515582D01*
X71998046Y-79393309D01*
X71998041Y-79393299D01*
X71866924Y-79166196D01*
X71707281Y-78958148D01*
X71707274Y-78958140D01*
X71521860Y-78772726D01*
X71521851Y-78772718D01*
X71313803Y-78613075D01*
X71086700Y-78481958D01*
X71086690Y-78481953D01*
X70844428Y-78381605D01*
X70844421Y-78381603D01*
X70844419Y-78381602D01*
X70591116Y-78313730D01*
X70533339Y-78306123D01*
X70331127Y-78279500D01*
X70331120Y-78279500D01*
X70068880Y-78279500D01*
X70068872Y-78279500D01*
X69837772Y-78309926D01*
X69808884Y-78313730D01*
X69628894Y-78361958D01*
X69555581Y-78381602D01*
X69555571Y-78381605D01*
X69313309Y-78481953D01*
X69313299Y-78481958D01*
X69086196Y-78613075D01*
X68878148Y-78772718D01*
X68692718Y-78958148D01*
X68579277Y-79105987D01*
X68522849Y-79147189D01*
X68480902Y-79154500D01*
X66997560Y-79154500D01*
X66930521Y-79134815D01*
X66909879Y-79118181D01*
X38753216Y-50961519D01*
X38753214Y-50961517D01*
X38609890Y-50857386D01*
X38452042Y-50776957D01*
X38452039Y-50776956D01*
X38283557Y-50722214D01*
X38182424Y-50706196D01*
X38108579Y-50694500D01*
X38108578Y-50694500D01*
X35919098Y-50694500D01*
X35852059Y-50674815D01*
X35820723Y-50645987D01*
X35707281Y-50498148D01*
X35707274Y-50498140D01*
X35521860Y-50312726D01*
X35521851Y-50312718D01*
X35313803Y-50153075D01*
X35086700Y-50021958D01*
X35086690Y-50021953D01*
X34844428Y-49921605D01*
X34844421Y-49921603D01*
X34844419Y-49921602D01*
X34591116Y-49853730D01*
X34533339Y-49846123D01*
X34331127Y-49819500D01*
X34331120Y-49819500D01*
X34068880Y-49819500D01*
X34068872Y-49819500D01*
X33837772Y-49849926D01*
X33808884Y-49853730D01*
X33555581Y-49921602D01*
X33555571Y-49921605D01*
X33313309Y-50021953D01*
X33313299Y-50021958D01*
X33086196Y-50153075D01*
X32878148Y-50312718D01*
X32692718Y-50498148D01*
X32533075Y-50706196D01*
X32401958Y-50933299D01*
X32401953Y-50933309D01*
X32301605Y-51175571D01*
X32301603Y-51175578D01*
X32301602Y-51175581D01*
X32252084Y-51360388D01*
X32244275Y-51389531D01*
X32207910Y-51449191D01*
X32145063Y-51479720D01*
X32075687Y-51471425D01*
X32021810Y-51426940D01*
X32000535Y-51360388D01*
X32000500Y-51357437D01*
X32000500Y-47202562D01*
X32020185Y-47135523D01*
X32072989Y-47089768D01*
X32142147Y-47079824D01*
X32205703Y-47108849D01*
X32243477Y-47167627D01*
X32244265Y-47170434D01*
X32301602Y-47384418D01*
X32301605Y-47384428D01*
X32401953Y-47626690D01*
X32401958Y-47626700D01*
X32533075Y-47853803D01*
X32692718Y-48061851D01*
X32692726Y-48061860D01*
X32878140Y-48247274D01*
X32878148Y-48247281D01*
X33086196Y-48406924D01*
X33313299Y-48538041D01*
X33313309Y-48538046D01*
X33555571Y-48638394D01*
X33555581Y-48638398D01*
X33808884Y-48706270D01*
X34068880Y-48740500D01*
X34068887Y-48740500D01*
X34331113Y-48740500D01*
X34331120Y-48740500D01*
X34591116Y-48706270D01*
X34844419Y-48638398D01*
X35086697Y-48538043D01*
X35313803Y-48406924D01*
X35521851Y-48247282D01*
X35521855Y-48247277D01*
X35521860Y-48247274D01*
X35707274Y-48061860D01*
X35707277Y-48061855D01*
X35707282Y-48061851D01*
X35820723Y-47914012D01*
X35877151Y-47872811D01*
X35919098Y-47865500D01*
X37422441Y-47865500D01*
X37489480Y-47885185D01*
X37510122Y-47901819D01*
X65666781Y-76058480D01*
X65666783Y-76058482D01*
X65666786Y-76058484D01*
X65705619Y-76086697D01*
X65810110Y-76162614D01*
X65870758Y-76193516D01*
X65967957Y-76243042D01*
X65967960Y-76243043D01*
X66052201Y-76270414D01*
X66136444Y-76297786D01*
X66311421Y-76325500D01*
X68480902Y-76325500D01*
X68547941Y-76345185D01*
X68579277Y-76374013D01*
X68692718Y-76521851D01*
X68692726Y-76521860D01*
X68878140Y-76707274D01*
X68878148Y-76707281D01*
X69086196Y-76866924D01*
X69313299Y-76998041D01*
X69313309Y-76998046D01*
X69511164Y-77080000D01*
X69555581Y-77098398D01*
X69808884Y-77166270D01*
X70068880Y-77200500D01*
X70068887Y-77200500D01*
X70331113Y-77200500D01*
X70331120Y-77200500D01*
X70591116Y-77166270D01*
X70844419Y-77098398D01*
X71086697Y-76998043D01*
X71313803Y-76866924D01*
X71521851Y-76707282D01*
X71521855Y-76707277D01*
X71521860Y-76707274D01*
X71707274Y-76521860D01*
X71707277Y-76521855D01*
X71707282Y-76521851D01*
X71866924Y-76313803D01*
X71998043Y-76086697D01*
X72098398Y-75844419D01*
X72166270Y-75591116D01*
X72200500Y-75331120D01*
X72200500Y-75068880D01*
X72166270Y-74808884D01*
X72098398Y-74555581D01*
X72048760Y-74435744D01*
X71998046Y-74313309D01*
X71998041Y-74313299D01*
X71866924Y-74086196D01*
X71707281Y-73878148D01*
X71707274Y-73878140D01*
X71521860Y-73692726D01*
X71521851Y-73692718D01*
X71313803Y-73533075D01*
X71086700Y-73401958D01*
X71086690Y-73401953D01*
X70844428Y-73301605D01*
X70844421Y-73301603D01*
X70844419Y-73301602D01*
X70591116Y-73233730D01*
X70533339Y-73226123D01*
X70331127Y-73199500D01*
X70331120Y-73199500D01*
X70068880Y-73199500D01*
X70068872Y-73199500D01*
X69837772Y-73229926D01*
X69808884Y-73233730D01*
X69627211Y-73282409D01*
X69555581Y-73301602D01*
X69555571Y-73301605D01*
X69313309Y-73401953D01*
X69313299Y-73401958D01*
X69086196Y-73533075D01*
X68878148Y-73692718D01*
X68692718Y-73878148D01*
X68579277Y-74025987D01*
X68522849Y-74067189D01*
X68480902Y-74074500D01*
X66917560Y-74074500D01*
X66850521Y-74054815D01*
X66829879Y-74038181D01*
X38673216Y-45881519D01*
X38673214Y-45881517D01*
X38529890Y-45777386D01*
X38372042Y-45696957D01*
X38372039Y-45696956D01*
X38203557Y-45642214D01*
X38102424Y-45626196D01*
X38028579Y-45614500D01*
X38028578Y-45614500D01*
X35919098Y-45614500D01*
X35852059Y-45594815D01*
X35820723Y-45565987D01*
X35770150Y-45500080D01*
X35707282Y-45418149D01*
X35707281Y-45418148D01*
X35707274Y-45418140D01*
X35521860Y-45232726D01*
X35521851Y-45232718D01*
X35313803Y-45073075D01*
X35086700Y-44941958D01*
X35086690Y-44941953D01*
X34844428Y-44841605D01*
X34844421Y-44841603D01*
X34844419Y-44841602D01*
X34591116Y-44773730D01*
X34533339Y-44766123D01*
X34331127Y-44739500D01*
X34331120Y-44739500D01*
X34068880Y-44739500D01*
X34068872Y-44739500D01*
X33837772Y-44769926D01*
X33808884Y-44773730D01*
X33555581Y-44841602D01*
X33555571Y-44841605D01*
X33313309Y-44941953D01*
X33313299Y-44941958D01*
X33086196Y-45073075D01*
X32878148Y-45232718D01*
X32692718Y-45418148D01*
X32533075Y-45626196D01*
X32401958Y-45853299D01*
X32401953Y-45853309D01*
X32301605Y-46095571D01*
X32301603Y-46095578D01*
X32301602Y-46095581D01*
X32252084Y-46280388D01*
X32244275Y-46309531D01*
X32207910Y-46369191D01*
X32145063Y-46399720D01*
X32075687Y-46391425D01*
X32021810Y-46346940D01*
X32000535Y-46280388D01*
X32000500Y-46277437D01*
X32000500Y-42122562D01*
X32020185Y-42055523D01*
X32072989Y-42009768D01*
X32142147Y-41999824D01*
X32205703Y-42028849D01*
X32243477Y-42087627D01*
X32244275Y-42090469D01*
X32301602Y-42304418D01*
X32301605Y-42304428D01*
X32401953Y-42546690D01*
X32401958Y-42546700D01*
X32533075Y-42773803D01*
X32692718Y-42981851D01*
X32692726Y-42981860D01*
X32878140Y-43167274D01*
X32878148Y-43167281D01*
X33086196Y-43326924D01*
X33313299Y-43458041D01*
X33313309Y-43458046D01*
X33555571Y-43558394D01*
X33555581Y-43558398D01*
X33808884Y-43626270D01*
X34068880Y-43660500D01*
X34068887Y-43660500D01*
X34331113Y-43660500D01*
X34331120Y-43660500D01*
X34591116Y-43626270D01*
X34844419Y-43558398D01*
X35086697Y-43458043D01*
X35313803Y-43326924D01*
X35521851Y-43167282D01*
X35521855Y-43167277D01*
X35521860Y-43167274D01*
X35707274Y-42981860D01*
X35707277Y-42981855D01*
X35707282Y-42981851D01*
X35820723Y-42834012D01*
X35877151Y-42792811D01*
X35919098Y-42785500D01*
X40542441Y-42785500D01*
X40609480Y-42805185D01*
X40630122Y-42821819D01*
X60861517Y-63053214D01*
X60986786Y-63178483D01*
X61130110Y-63282614D01*
X61207529Y-63322061D01*
X61287957Y-63363042D01*
X61287960Y-63363043D01*
X61372201Y-63390414D01*
X61456444Y-63417786D01*
X61631421Y-63445500D01*
X68280902Y-63445500D01*
X68347941Y-63465185D01*
X68379277Y-63494013D01*
X68492718Y-63641851D01*
X68492726Y-63641860D01*
X68678140Y-63827274D01*
X68678148Y-63827281D01*
X68886196Y-63986924D01*
X69113299Y-64118041D01*
X69113309Y-64118046D01*
X69355571Y-64218394D01*
X69355581Y-64218398D01*
X69608884Y-64286270D01*
X69868880Y-64320500D01*
X69868887Y-64320500D01*
X70131113Y-64320500D01*
X70131120Y-64320500D01*
X70391116Y-64286270D01*
X70644419Y-64218398D01*
X70886697Y-64118043D01*
X71113803Y-63986924D01*
X71321851Y-63827282D01*
X71321855Y-63827277D01*
X71321860Y-63827274D01*
X71507274Y-63641860D01*
X71507277Y-63641855D01*
X71507282Y-63641851D01*
X71666924Y-63433803D01*
X71798043Y-63206697D01*
X71898398Y-62964419D01*
X71966270Y-62711116D01*
X72000500Y-62451120D01*
X72000500Y-62188880D01*
X71966270Y-61928884D01*
X71898398Y-61675581D01*
X71898394Y-61675571D01*
X71798046Y-61433309D01*
X71798041Y-61433299D01*
X71666924Y-61206196D01*
X71507281Y-60998148D01*
X71507274Y-60998140D01*
X71321860Y-60812726D01*
X71321851Y-60812718D01*
X71113803Y-60653075D01*
X70886700Y-60521958D01*
X70886690Y-60521953D01*
X70644428Y-60421605D01*
X70644421Y-60421603D01*
X70644419Y-60421602D01*
X70391116Y-60353730D01*
X70333339Y-60346123D01*
X70131127Y-60319500D01*
X70131120Y-60319500D01*
X69868880Y-60319500D01*
X69868872Y-60319500D01*
X69637772Y-60349926D01*
X69608884Y-60353730D01*
X69355581Y-60421602D01*
X69355571Y-60421605D01*
X69113309Y-60521953D01*
X69113299Y-60521958D01*
X68886196Y-60653075D01*
X68678148Y-60812718D01*
X68492718Y-60998148D01*
X68379277Y-61145987D01*
X68322849Y-61187189D01*
X68280902Y-61194500D01*
X62237559Y-61194500D01*
X62170520Y-61174815D01*
X62149878Y-61158181D01*
X41862824Y-40871127D01*
X41862815Y-40871117D01*
X41858484Y-40866786D01*
X41733214Y-40741516D01*
X41733210Y-40741513D01*
X41733206Y-40741509D01*
X41589893Y-40637387D01*
X41432042Y-40556957D01*
X41432039Y-40556956D01*
X41263557Y-40502214D01*
X41161104Y-40485987D01*
X41088579Y-40474500D01*
X40911421Y-40474500D01*
X40886760Y-40478405D01*
X40801920Y-40491843D01*
X40801914Y-40491844D01*
X40796399Y-40492718D01*
X40736444Y-40502214D01*
X40651802Y-40529715D01*
X40647769Y-40530733D01*
X40642501Y-40530530D01*
X40617437Y-40534500D01*
X35919098Y-40534500D01*
X35852059Y-40514815D01*
X35820723Y-40485987D01*
X35754732Y-40399987D01*
X35729537Y-40334818D01*
X35743575Y-40266373D01*
X35792389Y-40216383D01*
X35853107Y-40200500D01*
X42734218Y-40200500D01*
X42801257Y-40220185D01*
X42821899Y-40236819D01*
X60602215Y-58017137D01*
X60602219Y-58017140D01*
X60766079Y-58126628D01*
X60766085Y-58126631D01*
X60766086Y-58126632D01*
X60948165Y-58202052D01*
X61109389Y-58234121D01*
X61141457Y-58240499D01*
X61141458Y-58240500D01*
X61141459Y-58240500D01*
X61141460Y-58240500D01*
X61338541Y-58240500D01*
X68196069Y-58240500D01*
X68263108Y-58260185D01*
X68303456Y-58302500D01*
X68333075Y-58353803D01*
X68492718Y-58561851D01*
X68492726Y-58561860D01*
X68678140Y-58747274D01*
X68678148Y-58747281D01*
X68886196Y-58906924D01*
X69113299Y-59038041D01*
X69113309Y-59038046D01*
X69355571Y-59138394D01*
X69355581Y-59138398D01*
X69608884Y-59206270D01*
X69868880Y-59240500D01*
X69868887Y-59240500D01*
X70131113Y-59240500D01*
X70131120Y-59240500D01*
X70391116Y-59206270D01*
X70644419Y-59138398D01*
X70886697Y-59038043D01*
X71113803Y-58906924D01*
X71321851Y-58747282D01*
X71321855Y-58747277D01*
X71321860Y-58747274D01*
X71507274Y-58561860D01*
X71507277Y-58561855D01*
X71507282Y-58561851D01*
X71666924Y-58353803D01*
X71798043Y-58126697D01*
X71898398Y-57884419D01*
X71966270Y-57631116D01*
X72000500Y-57371120D01*
X72000500Y-57108880D01*
X71966270Y-56848884D01*
X71898398Y-56595581D01*
X71798043Y-56353303D01*
X71796490Y-56349553D01*
X71797966Y-56348941D01*
X71787093Y-56286622D01*
X71814201Y-56222226D01*
X71871822Y-56182708D01*
X71941660Y-56180616D01*
X71997985Y-56212905D01*
X73363181Y-57578101D01*
X73396666Y-57639424D01*
X73399500Y-57665782D01*
X73399500Y-62534217D01*
X73379815Y-62601256D01*
X73363181Y-62621898D01*
X70621897Y-65363181D01*
X70560574Y-65396666D01*
X70534216Y-65399500D01*
X68452129Y-65399500D01*
X68452123Y-65399501D01*
X68392516Y-65405908D01*
X68257671Y-65456202D01*
X68257664Y-65456206D01*
X68142455Y-65542452D01*
X68142452Y-65542455D01*
X68056206Y-65657664D01*
X68056202Y-65657671D01*
X68005908Y-65792517D01*
X67999501Y-65852116D01*
X67999500Y-65852135D01*
X67999500Y-68947870D01*
X67999501Y-68947876D01*
X68005908Y-69007483D01*
X68056202Y-69142328D01*
X68056206Y-69142335D01*
X68142452Y-69257544D01*
X68142455Y-69257547D01*
X68257664Y-69343793D01*
X68257671Y-69343797D01*
X68392517Y-69394091D01*
X68392516Y-69394091D01*
X68399444Y-69394835D01*
X68452127Y-69400500D01*
X71547872Y-69400499D01*
X71607483Y-69394091D01*
X71742331Y-69343796D01*
X71857546Y-69257546D01*
X71943796Y-69142331D01*
X71994091Y-69007483D01*
X72000500Y-68947873D01*
X72000499Y-66865781D01*
X72020184Y-66798743D01*
X72036818Y-66778101D01*
X75177137Y-63637784D01*
X75177137Y-63637783D01*
X75177140Y-63637781D01*
X75286632Y-63473914D01*
X75362052Y-63291835D01*
X75400500Y-63098540D01*
X75400500Y-62901459D01*
X75400500Y-56901459D01*
X75400500Y-56901456D01*
X75362052Y-56708170D01*
X75362051Y-56708169D01*
X75362051Y-56708165D01*
X75315418Y-56595581D01*
X75286635Y-56526092D01*
X75286628Y-56526079D01*
X75177139Y-56362218D01*
X75177136Y-56362214D01*
X75037785Y-56222863D01*
X75037781Y-56222860D01*
X74873920Y-56113371D01*
X74873907Y-56113364D01*
X74691837Y-56037949D01*
X74691831Y-56037947D01*
X74680084Y-56035611D01*
X74618173Y-56003225D01*
X74616596Y-56001675D01*
X72584209Y-53969289D01*
X72584206Y-53969285D01*
X72584206Y-53969286D01*
X72577139Y-53962219D01*
X72577139Y-53962218D01*
X72437782Y-53822861D01*
X72437781Y-53822860D01*
X72437780Y-53822859D01*
X72273920Y-53713371D01*
X72273911Y-53713366D01*
X72190683Y-53678892D01*
X72145165Y-53660038D01*
X72118500Y-53648993D01*
X72091837Y-53637949D01*
X72091833Y-53637947D01*
X71908395Y-53601460D01*
X71908391Y-53601458D01*
X71908391Y-53601459D01*
X71898544Y-53599500D01*
X71898541Y-53599500D01*
X71668454Y-53599500D01*
X71601415Y-53579815D01*
X71555660Y-53527011D01*
X71545716Y-53457853D01*
X71570079Y-53400013D01*
X71666924Y-53273803D01*
X71798041Y-53046700D01*
X71798046Y-53046690D01*
X71898394Y-52804428D01*
X71898398Y-52804419D01*
X71966270Y-52551116D01*
X72000500Y-52291120D01*
X72000500Y-52028880D01*
X71966270Y-51768884D01*
X71898398Y-51515581D01*
X71880108Y-51471425D01*
X71798046Y-51273309D01*
X71798041Y-51273299D01*
X71666924Y-51046196D01*
X71507281Y-50838148D01*
X71507274Y-50838140D01*
X71321860Y-50652726D01*
X71321851Y-50652718D01*
X71113803Y-50493075D01*
X70886700Y-50361958D01*
X70886690Y-50361953D01*
X70644428Y-50261605D01*
X70644421Y-50261603D01*
X70644419Y-50261602D01*
X70391116Y-50193730D01*
X70315867Y-50183823D01*
X70131127Y-50159500D01*
X70131120Y-50159500D01*
X69868880Y-50159500D01*
X69868874Y-50159500D01*
X69868870Y-50159501D01*
X69684129Y-50183823D01*
X69615094Y-50173057D01*
X69580263Y-50148565D01*
X66380603Y-46948905D01*
X68000000Y-46948905D01*
X68000000Y-47211094D01*
X68034220Y-47471009D01*
X68034222Y-47471020D01*
X68102075Y-47724255D01*
X68202404Y-47966471D01*
X68202409Y-47966482D01*
X68333488Y-48193516D01*
X68333494Y-48193524D01*
X68420080Y-48306365D01*
X69314767Y-47411677D01*
X69326497Y-47439995D01*
X69409670Y-47564472D01*
X69515528Y-47670330D01*
X69640005Y-47753503D01*
X69668320Y-47765231D01*
X68773633Y-48659917D01*
X68773633Y-48659918D01*
X68886475Y-48746505D01*
X68886483Y-48746511D01*
X69113517Y-48877590D01*
X69113528Y-48877595D01*
X69355744Y-48977924D01*
X69608979Y-49045777D01*
X69608990Y-49045779D01*
X69868905Y-49079999D01*
X69868920Y-49080000D01*
X70131080Y-49080000D01*
X70131094Y-49079999D01*
X70391009Y-49045779D01*
X70391020Y-49045777D01*
X70644255Y-48977924D01*
X70886471Y-48877595D01*
X70886482Y-48877590D01*
X71113516Y-48746511D01*
X71113534Y-48746499D01*
X71226365Y-48659919D01*
X71226365Y-48659917D01*
X70331679Y-47765231D01*
X70359995Y-47753503D01*
X70484472Y-47670330D01*
X70590330Y-47564472D01*
X70673503Y-47439995D01*
X70685231Y-47411679D01*
X71579917Y-48306365D01*
X71579919Y-48306365D01*
X71666499Y-48193534D01*
X71666511Y-48193516D01*
X71797590Y-47966482D01*
X71797595Y-47966471D01*
X71897924Y-47724255D01*
X71965777Y-47471020D01*
X71965779Y-47471009D01*
X71999999Y-47211094D01*
X72000000Y-47211080D01*
X72000000Y-46948919D01*
X71999999Y-46948905D01*
X71965779Y-46688990D01*
X71965777Y-46688979D01*
X71897924Y-46435744D01*
X71797595Y-46193528D01*
X71797590Y-46193517D01*
X71666511Y-45966483D01*
X71666505Y-45966475D01*
X71579918Y-45853633D01*
X71579917Y-45853633D01*
X70685231Y-46748320D01*
X70673503Y-46720005D01*
X70590330Y-46595528D01*
X70484472Y-46489670D01*
X70359995Y-46406497D01*
X70331677Y-46394767D01*
X71226365Y-45500080D01*
X71113524Y-45413494D01*
X71113516Y-45413488D01*
X70886482Y-45282409D01*
X70886471Y-45282404D01*
X70644255Y-45182075D01*
X70391020Y-45114222D01*
X70391009Y-45114220D01*
X70131094Y-45080000D01*
X69868905Y-45080000D01*
X69608990Y-45114220D01*
X69608979Y-45114222D01*
X69355744Y-45182075D01*
X69113528Y-45282404D01*
X69113517Y-45282409D01*
X68886471Y-45413496D01*
X68773633Y-45500079D01*
X68773633Y-45500080D01*
X69668321Y-46394768D01*
X69640005Y-46406497D01*
X69515528Y-46489670D01*
X69409670Y-46595528D01*
X69326497Y-46720005D01*
X69314768Y-46748321D01*
X68420080Y-45853633D01*
X68420079Y-45853633D01*
X68333496Y-45966471D01*
X68202409Y-46193517D01*
X68202404Y-46193528D01*
X68102075Y-46435744D01*
X68034222Y-46688979D01*
X68034220Y-46688990D01*
X68000000Y-46948905D01*
X66380603Y-46948905D01*
X61300570Y-41868872D01*
X67999500Y-41868872D01*
X67999500Y-42131127D01*
X68022316Y-42304418D01*
X68033730Y-42391116D01*
X68101602Y-42644418D01*
X68101605Y-42644428D01*
X68201953Y-42886690D01*
X68201958Y-42886700D01*
X68333075Y-43113803D01*
X68492718Y-43321851D01*
X68492726Y-43321860D01*
X68678140Y-43507274D01*
X68678148Y-43507281D01*
X68886196Y-43666924D01*
X69113299Y-43798041D01*
X69113309Y-43798046D01*
X69355571Y-43898394D01*
X69355581Y-43898398D01*
X69608884Y-43966270D01*
X69868880Y-44000500D01*
X69868887Y-44000500D01*
X70131113Y-44000500D01*
X70131120Y-44000500D01*
X70391116Y-43966270D01*
X70644419Y-43898398D01*
X70886697Y-43798043D01*
X71113803Y-43666924D01*
X71321851Y-43507282D01*
X71321855Y-43507277D01*
X71321860Y-43507274D01*
X71507274Y-43321860D01*
X71507277Y-43321855D01*
X71507282Y-43321851D01*
X71666924Y-43113803D01*
X71798043Y-42886697D01*
X71898398Y-42644419D01*
X71966270Y-42391116D01*
X72000500Y-42131120D01*
X72000500Y-41868880D01*
X71966270Y-41608884D01*
X71898398Y-41355581D01*
X71862487Y-41268884D01*
X71798046Y-41113309D01*
X71798041Y-41113299D01*
X71666924Y-40886196D01*
X71507281Y-40678148D01*
X71507274Y-40678140D01*
X71321860Y-40492726D01*
X71321851Y-40492718D01*
X71113803Y-40333075D01*
X70886700Y-40201958D01*
X70886690Y-40201953D01*
X70644428Y-40101605D01*
X70644421Y-40101603D01*
X70644419Y-40101602D01*
X70391116Y-40033730D01*
X70333339Y-40026123D01*
X70131127Y-39999500D01*
X70131120Y-39999500D01*
X69868880Y-39999500D01*
X69868872Y-39999500D01*
X69638142Y-40029878D01*
X69608884Y-40033730D01*
X69546223Y-40050520D01*
X69355581Y-40101602D01*
X69355571Y-40101605D01*
X69113309Y-40201953D01*
X69113299Y-40201958D01*
X68886196Y-40333075D01*
X68678148Y-40492718D01*
X68492718Y-40678148D01*
X68333075Y-40886196D01*
X68201958Y-41113299D01*
X68201953Y-41113309D01*
X68101605Y-41355571D01*
X68101602Y-41355581D01*
X68033730Y-41608885D01*
X67999500Y-41868872D01*
X61300570Y-41868872D01*
X53201819Y-33770121D01*
X53168334Y-33708798D01*
X53165500Y-33682440D01*
X53165500Y-24319098D01*
X53185185Y-24252059D01*
X53214014Y-24220722D01*
X53267192Y-24179917D01*
X53361851Y-24107282D01*
X53424849Y-24044284D01*
X53547274Y-23921860D01*
X53547277Y-23921855D01*
X53547282Y-23921851D01*
X53706924Y-23713803D01*
X53838043Y-23486697D01*
X53938398Y-23244419D01*
X54006270Y-22991116D01*
X54040500Y-22731120D01*
X54040500Y-22468880D01*
X54006270Y-22208884D01*
X53938398Y-21955581D01*
X53890523Y-21840000D01*
X53838046Y-21713309D01*
X53838041Y-21713299D01*
X53706924Y-21486196D01*
X53547281Y-21278148D01*
X53547274Y-21278140D01*
X53361860Y-21092726D01*
X53361851Y-21092718D01*
X53153803Y-20933075D01*
X52926700Y-20801958D01*
X52926690Y-20801953D01*
X52684428Y-20701605D01*
X52684421Y-20701603D01*
X52684419Y-20701602D01*
X52431116Y-20633730D01*
X52373339Y-20626123D01*
X52171127Y-20599500D01*
X52171120Y-20599500D01*
X51908880Y-20599500D01*
X51908872Y-20599500D01*
X51677772Y-20629926D01*
X51648884Y-20633730D01*
X51563364Y-20656645D01*
X51395581Y-20701602D01*
X51395571Y-20701605D01*
X51153309Y-20801953D01*
X51153299Y-20801958D01*
X50926196Y-20933075D01*
X50718148Y-21092718D01*
X50532718Y-21278148D01*
X50373075Y-21486196D01*
X50241958Y-21713299D01*
X50241953Y-21713309D01*
X50141605Y-21955571D01*
X50141602Y-21955581D01*
X50073730Y-22208884D01*
X50073716Y-22208990D01*
X50039500Y-22468872D01*
X50039500Y-22731127D01*
X50051423Y-22821684D01*
X50073730Y-22991116D01*
X50098745Y-23084472D01*
X50141602Y-23244418D01*
X50141605Y-23244428D01*
X50241953Y-23486690D01*
X50241958Y-23486700D01*
X50373075Y-23713803D01*
X50532718Y-23921851D01*
X50532726Y-23921860D01*
X50718143Y-24107277D01*
X50718150Y-24107283D01*
X50865986Y-24220722D01*
X50907189Y-24277150D01*
X50914500Y-24319098D01*
X50914500Y-34288578D01*
X50942213Y-34463556D01*
X50965897Y-34536444D01*
X50965897Y-34536446D01*
X50996955Y-34632036D01*
X50996957Y-34632042D01*
X51073342Y-34781953D01*
X51077386Y-34789890D01*
X51166886Y-34913076D01*
X51166888Y-34913079D01*
X51181511Y-34933207D01*
X51181515Y-34933212D01*
X67988565Y-51740263D01*
X68022050Y-51801586D01*
X68023823Y-51844129D01*
X67999501Y-52028870D01*
X67999500Y-52028886D01*
X67999500Y-52291127D01*
X68022316Y-52464418D01*
X68033730Y-52551116D01*
X68101602Y-52804418D01*
X68101605Y-52804428D01*
X68201953Y-53046690D01*
X68201958Y-53046700D01*
X68333075Y-53273803D01*
X68429921Y-53400013D01*
X68455116Y-53465182D01*
X68441078Y-53533627D01*
X68392264Y-53583617D01*
X68331546Y-53599500D01*
X64865783Y-53599500D01*
X64798744Y-53579815D01*
X64778102Y-53563181D01*
X47996819Y-36781898D01*
X47963334Y-36720575D01*
X47960500Y-36694217D01*
X47960500Y-24403930D01*
X47980185Y-24336891D01*
X48022500Y-24296543D01*
X48073803Y-24266924D01*
X48281851Y-24107282D01*
X48281855Y-24107277D01*
X48281860Y-24107274D01*
X48467274Y-23921860D01*
X48467277Y-23921855D01*
X48467282Y-23921851D01*
X48626924Y-23713803D01*
X48758043Y-23486697D01*
X48858398Y-23244419D01*
X48926270Y-22991116D01*
X48960500Y-22731120D01*
X48960500Y-22468880D01*
X48926270Y-22208884D01*
X48858398Y-21955581D01*
X48810523Y-21840000D01*
X48758046Y-21713309D01*
X48758041Y-21713299D01*
X48626924Y-21486196D01*
X48467281Y-21278148D01*
X48467274Y-21278140D01*
X48281860Y-21092726D01*
X48281851Y-21092718D01*
X48073803Y-20933075D01*
X47846700Y-20801958D01*
X47846690Y-20801953D01*
X47604428Y-20701605D01*
X47604421Y-20701603D01*
X47604419Y-20701602D01*
X47351116Y-20633730D01*
X47293339Y-20626123D01*
X47091127Y-20599500D01*
X47091120Y-20599500D01*
X46828880Y-20599500D01*
X46828872Y-20599500D01*
X46597772Y-20629926D01*
X46568884Y-20633730D01*
X46483364Y-20656645D01*
X46315581Y-20701602D01*
X46315571Y-20701605D01*
X46073309Y-20801953D01*
X46073299Y-20801958D01*
X45846196Y-20933075D01*
X45638148Y-21092718D01*
X45452718Y-21278148D01*
X45293075Y-21486196D01*
X45161958Y-21713299D01*
X45161953Y-21713309D01*
X45061605Y-21955571D01*
X45061602Y-21955581D01*
X44993730Y-22208884D01*
X44993716Y-22208990D01*
X44959500Y-22468872D01*
X44959500Y-22731127D01*
X44971423Y-22821684D01*
X44993730Y-22991116D01*
X45018745Y-23084472D01*
X45061602Y-23244418D01*
X45061605Y-23244428D01*
X45161953Y-23486690D01*
X45161958Y-23486700D01*
X45293075Y-23713803D01*
X45452718Y-23921851D01*
X45452726Y-23921860D01*
X45638140Y-24107274D01*
X45638148Y-24107281D01*
X45638149Y-24107282D01*
X45846197Y-24266924D01*
X45897498Y-24296542D01*
X45945715Y-24347108D01*
X45959500Y-24403930D01*
X45959500Y-37258541D01*
X45959500Y-37258543D01*
X45959499Y-37258543D01*
X45997947Y-37451829D01*
X45997950Y-37451839D01*
X46073364Y-37633907D01*
X46073371Y-37633920D01*
X46182859Y-37797780D01*
X46182860Y-37797781D01*
X46182861Y-37797782D01*
X46322218Y-37937139D01*
X46322219Y-37937139D01*
X46329286Y-37944206D01*
X46329285Y-37944206D01*
X46329289Y-37944209D01*
X63762215Y-55377137D01*
X63762219Y-55377140D01*
X63926079Y-55486628D01*
X63926085Y-55486631D01*
X63926086Y-55486632D01*
X64108165Y-55562052D01*
X64301455Y-55600500D01*
X64301458Y-55600501D01*
X64301460Y-55600501D01*
X64504655Y-55600501D01*
X64504675Y-55600500D01*
X68511004Y-55600500D01*
X68578043Y-55620185D01*
X68623798Y-55672989D01*
X68633742Y-55742147D01*
X68604717Y-55805703D01*
X68598685Y-55812181D01*
X68492718Y-55918148D01*
X68333075Y-56126196D01*
X68303456Y-56177500D01*
X68252889Y-56225715D01*
X68196069Y-56239500D01*
X61705783Y-56239500D01*
X61638744Y-56219815D01*
X61618102Y-56203181D01*
X43984209Y-38569289D01*
X43984206Y-38569285D01*
X43984206Y-38569286D01*
X43977139Y-38562219D01*
X43977139Y-38562218D01*
X43837782Y-38422861D01*
X43837781Y-38422860D01*
X43837780Y-38422859D01*
X43673916Y-38313369D01*
X43673907Y-38313364D01*
X43522034Y-38250457D01*
X43522030Y-38250456D01*
X43513503Y-38246924D01*
X43491836Y-38237949D01*
X43395188Y-38218724D01*
X43392301Y-38218149D01*
X43392282Y-38218145D01*
X43298544Y-38199500D01*
X43298541Y-38199500D01*
X35708996Y-38199500D01*
X35641957Y-38179815D01*
X35596202Y-38127011D01*
X35586258Y-38057853D01*
X35615283Y-37994297D01*
X35621315Y-37987819D01*
X35707274Y-37901860D01*
X35707277Y-37901855D01*
X35707282Y-37901851D01*
X35866924Y-37693803D01*
X35998043Y-37466697D01*
X36098398Y-37224419D01*
X36166270Y-36971116D01*
X36200500Y-36711120D01*
X36200500Y-36448880D01*
X36166270Y-36188884D01*
X36098398Y-35935581D01*
X36082743Y-35897786D01*
X35998046Y-35693309D01*
X35998041Y-35693299D01*
X35866924Y-35466196D01*
X35707281Y-35258148D01*
X35707274Y-35258140D01*
X35521860Y-35072726D01*
X35521851Y-35072718D01*
X35313803Y-34913075D01*
X35086700Y-34781958D01*
X35086690Y-34781953D01*
X34844428Y-34681605D01*
X34844421Y-34681603D01*
X34844419Y-34681602D01*
X34591116Y-34613730D01*
X34533339Y-34606123D01*
X34331127Y-34579500D01*
X34331120Y-34579500D01*
X34068880Y-34579500D01*
X34068872Y-34579500D01*
X33837772Y-34609926D01*
X33808884Y-34613730D01*
X33555581Y-34681602D01*
X33555571Y-34681605D01*
X33313309Y-34781953D01*
X33313299Y-34781958D01*
X33086196Y-34913075D01*
X32878148Y-35072718D01*
X32692718Y-35258148D01*
X32579277Y-35405987D01*
X32522849Y-35447189D01*
X32480902Y-35454500D01*
X31108579Y-35454500D01*
X30931421Y-35454500D01*
X30873095Y-35463738D01*
X30756442Y-35482214D01*
X30599481Y-35533214D01*
X30599478Y-35533215D01*
X30587959Y-35536957D01*
X30587957Y-35536957D01*
X30430109Y-35617386D01*
X30394279Y-35643418D01*
X30358448Y-35669451D01*
X30358447Y-35669452D01*
X30286789Y-35721512D01*
X30286787Y-35721514D01*
X29337181Y-36671121D01*
X29275858Y-36704606D01*
X29206166Y-36699622D01*
X29150233Y-36657750D01*
X29125816Y-36592286D01*
X29125500Y-36583440D01*
X29125500Y-31368905D01*
X32200000Y-31368905D01*
X32200000Y-31631094D01*
X32234220Y-31891009D01*
X32234222Y-31891020D01*
X32302075Y-32144255D01*
X32402404Y-32386471D01*
X32402409Y-32386482D01*
X32533488Y-32613516D01*
X32533494Y-32613524D01*
X32620080Y-32726365D01*
X33514767Y-31831677D01*
X33526497Y-31859995D01*
X33609670Y-31984472D01*
X33715528Y-32090330D01*
X33840005Y-32173503D01*
X33868320Y-32185231D01*
X32973633Y-33079917D01*
X32973633Y-33079918D01*
X33086475Y-33166505D01*
X33086483Y-33166511D01*
X33313517Y-33297590D01*
X33313528Y-33297595D01*
X33555744Y-33397924D01*
X33808979Y-33465777D01*
X33808990Y-33465779D01*
X34068905Y-33499999D01*
X34068920Y-33500000D01*
X34331080Y-33500000D01*
X34331094Y-33499999D01*
X34591009Y-33465779D01*
X34591020Y-33465777D01*
X34844255Y-33397924D01*
X35086471Y-33297595D01*
X35086482Y-33297590D01*
X35313516Y-33166511D01*
X35313534Y-33166499D01*
X35426365Y-33079919D01*
X35426365Y-33079917D01*
X34531679Y-32185231D01*
X34559995Y-32173503D01*
X34684472Y-32090330D01*
X34790330Y-31984472D01*
X34873503Y-31859995D01*
X34885231Y-31831679D01*
X35779917Y-32726365D01*
X35779919Y-32726365D01*
X35866499Y-32613534D01*
X35866511Y-32613516D01*
X35997590Y-32386482D01*
X35997595Y-32386471D01*
X36097924Y-32144255D01*
X36165777Y-31891020D01*
X36165779Y-31891009D01*
X36199999Y-31631094D01*
X36200000Y-31631080D01*
X36200000Y-31368919D01*
X36199999Y-31368905D01*
X36165779Y-31108990D01*
X36165777Y-31108979D01*
X36097924Y-30855744D01*
X35997595Y-30613528D01*
X35997590Y-30613517D01*
X35866511Y-30386483D01*
X35866505Y-30386475D01*
X35779918Y-30273633D01*
X35779917Y-30273633D01*
X34885231Y-31168320D01*
X34873503Y-31140005D01*
X34790330Y-31015528D01*
X34684472Y-30909670D01*
X34559995Y-30826497D01*
X34531677Y-30814767D01*
X35426365Y-29920080D01*
X35313524Y-29833494D01*
X35313516Y-29833488D01*
X35086482Y-29702409D01*
X35086471Y-29702404D01*
X34844255Y-29602075D01*
X34591020Y-29534222D01*
X34591009Y-29534220D01*
X34331094Y-29500000D01*
X34068905Y-29500000D01*
X33808990Y-29534220D01*
X33808979Y-29534222D01*
X33555744Y-29602075D01*
X33313528Y-29702404D01*
X33313517Y-29702409D01*
X33086471Y-29833496D01*
X32973633Y-29920079D01*
X32973633Y-29920080D01*
X33868321Y-30814768D01*
X33840005Y-30826497D01*
X33715528Y-30909670D01*
X33609670Y-31015528D01*
X33526497Y-31140005D01*
X33514768Y-31168321D01*
X32620080Y-30273633D01*
X32620079Y-30273633D01*
X32533496Y-30386471D01*
X32402409Y-30613517D01*
X32402404Y-30613528D01*
X32302075Y-30855744D01*
X32234222Y-31108979D01*
X32234220Y-31108990D01*
X32200000Y-31368905D01*
X29125500Y-31368905D01*
X29125500Y-22317559D01*
X29145185Y-22250520D01*
X29161819Y-22229878D01*
X30339542Y-21052155D01*
X39880000Y-21052155D01*
X39880000Y-22350000D01*
X41160936Y-22350000D01*
X41149207Y-22378316D01*
X41120000Y-22525147D01*
X41120000Y-22674853D01*
X41149207Y-22821684D01*
X41160936Y-22850000D01*
X39880000Y-22850000D01*
X39880000Y-24147844D01*
X39886401Y-24207372D01*
X39886403Y-24207379D01*
X39936645Y-24342086D01*
X39936649Y-24342093D01*
X40022809Y-24457187D01*
X40022812Y-24457190D01*
X40137906Y-24543350D01*
X40137913Y-24543354D01*
X40272620Y-24593596D01*
X40272627Y-24593598D01*
X40332155Y-24599999D01*
X40332172Y-24600000D01*
X41630000Y-24600000D01*
X41630000Y-23319064D01*
X41658316Y-23330793D01*
X41805147Y-23360000D01*
X41954853Y-23360000D01*
X42101684Y-23330793D01*
X42130000Y-23319064D01*
X42130000Y-24600000D01*
X43427828Y-24600000D01*
X43427844Y-24599999D01*
X43487372Y-24593598D01*
X43487379Y-24593596D01*
X43622086Y-24543354D01*
X43622093Y-24543350D01*
X43737187Y-24457190D01*
X43737190Y-24457187D01*
X43823350Y-24342093D01*
X43823354Y-24342086D01*
X43873596Y-24207379D01*
X43873598Y-24207372D01*
X43879999Y-24147844D01*
X43880000Y-24147827D01*
X43880000Y-22850000D01*
X42599064Y-22850000D01*
X42610793Y-22821684D01*
X42640000Y-22674853D01*
X42640000Y-22525147D01*
X42610793Y-22378316D01*
X42599064Y-22350000D01*
X43880000Y-22350000D01*
X43880000Y-21052172D01*
X43879999Y-21052155D01*
X43873598Y-20992627D01*
X43873596Y-20992620D01*
X43823354Y-20857913D01*
X43823350Y-20857906D01*
X43737190Y-20742812D01*
X43737187Y-20742809D01*
X43622093Y-20656649D01*
X43622086Y-20656645D01*
X43487379Y-20606403D01*
X43487372Y-20606401D01*
X43427844Y-20600000D01*
X42130000Y-20600000D01*
X42130000Y-21880935D01*
X42101684Y-21869207D01*
X41954853Y-21840000D01*
X41805147Y-21840000D01*
X41658316Y-21869207D01*
X41630000Y-21880935D01*
X41630000Y-20600000D01*
X40332155Y-20600000D01*
X40272627Y-20606401D01*
X40272620Y-20606403D01*
X40137913Y-20656645D01*
X40137906Y-20656649D01*
X40022812Y-20742809D01*
X40022809Y-20742812D01*
X39936649Y-20857906D01*
X39936645Y-20857913D01*
X39886403Y-20992620D01*
X39886401Y-20992627D01*
X39880000Y-21052155D01*
X30339542Y-21052155D01*
X30430527Y-20961170D01*
X30648886Y-20742812D01*
X32029879Y-19361819D01*
X32091202Y-19328334D01*
X32117560Y-19325500D01*
X54682441Y-19325500D01*
X54749480Y-19345185D01*
X54770122Y-19361819D01*
X55958181Y-20549878D01*
X55972884Y-20576805D01*
X55989477Y-20602624D01*
X55990368Y-20608824D01*
X55991666Y-20611201D01*
X55994500Y-20637559D01*
X55994500Y-20880901D01*
X55974815Y-20947940D01*
X55945987Y-20979276D01*
X55798148Y-21092718D01*
X55612718Y-21278148D01*
X55453075Y-21486196D01*
X55321958Y-21713299D01*
X55321953Y-21713309D01*
X55221605Y-21955571D01*
X55221602Y-21955581D01*
X55153730Y-22208884D01*
X55153716Y-22208990D01*
X55119500Y-22468872D01*
X55119500Y-22731127D01*
X55131423Y-22821684D01*
X55153730Y-22991116D01*
X55178745Y-23084472D01*
X55221602Y-23244418D01*
X55221605Y-23244428D01*
X55321953Y-23486690D01*
X55321958Y-23486700D01*
X55453075Y-23713803D01*
X55612718Y-23921851D01*
X55612726Y-23921860D01*
X55798143Y-24107277D01*
X55798150Y-24107283D01*
X55945986Y-24220722D01*
X55987189Y-24277150D01*
X55994500Y-24319098D01*
X55994500Y-29608578D01*
X56022214Y-29783556D01*
X56076956Y-29952039D01*
X56076957Y-29952042D01*
X56157386Y-30109890D01*
X56261517Y-30253214D01*
X61666786Y-35658484D01*
X61804914Y-35758839D01*
X61810110Y-35762614D01*
X61889034Y-35802828D01*
X61967957Y-35843042D01*
X61967960Y-35843043D01*
X62052201Y-35870414D01*
X62136445Y-35897786D01*
X62311421Y-35925500D01*
X62311422Y-35925500D01*
X62488579Y-35925500D01*
X67875501Y-35925500D01*
X67942540Y-35945185D01*
X67988295Y-35997989D01*
X67999501Y-36049500D01*
X67999501Y-36347876D01*
X68005908Y-36407483D01*
X68056202Y-36542328D01*
X68056206Y-36542335D01*
X68142452Y-36657544D01*
X68142455Y-36657547D01*
X68257664Y-36743793D01*
X68257671Y-36743797D01*
X68392517Y-36794091D01*
X68392516Y-36794091D01*
X68399444Y-36794835D01*
X68452127Y-36800500D01*
X71547872Y-36800499D01*
X71607483Y-36794091D01*
X71742331Y-36743796D01*
X71857546Y-36657546D01*
X71943796Y-36542331D01*
X71994091Y-36407483D01*
X72000500Y-36347873D01*
X72000499Y-33252128D01*
X71994091Y-33192517D01*
X71984391Y-33166511D01*
X71943797Y-33057671D01*
X71943793Y-33057664D01*
X71857547Y-32942455D01*
X71857544Y-32942452D01*
X71742335Y-32856206D01*
X71742328Y-32856202D01*
X71607482Y-32805908D01*
X71607483Y-32805908D01*
X71547883Y-32799501D01*
X71547881Y-32799500D01*
X71547873Y-32799500D01*
X71547864Y-32799500D01*
X68452129Y-32799500D01*
X68452123Y-32799501D01*
X68392516Y-32805908D01*
X68257671Y-32856202D01*
X68257664Y-32856206D01*
X68142455Y-32942452D01*
X68142452Y-32942455D01*
X68056206Y-33057664D01*
X68056202Y-33057671D01*
X68005908Y-33192517D01*
X67999501Y-33252116D01*
X67999501Y-33252123D01*
X67999500Y-33252135D01*
X67999500Y-33550500D01*
X67979815Y-33617539D01*
X67927011Y-33663294D01*
X67875500Y-33674500D01*
X62917560Y-33674500D01*
X62850521Y-33654815D01*
X62829879Y-33638181D01*
X58780603Y-29588905D01*
X68000000Y-29588905D01*
X68000000Y-29851094D01*
X68034220Y-30111009D01*
X68034222Y-30111020D01*
X68102075Y-30364255D01*
X68202404Y-30606471D01*
X68202409Y-30606482D01*
X68333488Y-30833516D01*
X68333494Y-30833524D01*
X68420080Y-30946365D01*
X69314767Y-30051677D01*
X69326497Y-30079995D01*
X69409670Y-30204472D01*
X69515528Y-30310330D01*
X69640005Y-30393503D01*
X69668320Y-30405231D01*
X68773633Y-31299917D01*
X68773633Y-31299918D01*
X68886475Y-31386505D01*
X68886483Y-31386511D01*
X69113517Y-31517590D01*
X69113528Y-31517595D01*
X69355744Y-31617924D01*
X69608979Y-31685777D01*
X69608990Y-31685779D01*
X69868905Y-31719999D01*
X69868920Y-31720000D01*
X70131080Y-31720000D01*
X70131094Y-31719999D01*
X70391009Y-31685779D01*
X70391020Y-31685777D01*
X70644255Y-31617924D01*
X70886471Y-31517595D01*
X70886482Y-31517590D01*
X71113516Y-31386511D01*
X71113534Y-31386499D01*
X71226365Y-31299919D01*
X71226365Y-31299917D01*
X70331679Y-30405231D01*
X70359995Y-30393503D01*
X70484472Y-30310330D01*
X70590330Y-30204472D01*
X70673503Y-30079995D01*
X70685231Y-30051679D01*
X71579917Y-30946365D01*
X71579919Y-30946365D01*
X71666499Y-30833534D01*
X71666511Y-30833516D01*
X71797590Y-30606482D01*
X71797595Y-30606471D01*
X71897924Y-30364255D01*
X71965777Y-30111020D01*
X71965779Y-30111009D01*
X71999999Y-29851094D01*
X72000000Y-29851080D01*
X72000000Y-29588919D01*
X71999999Y-29588905D01*
X71965779Y-29328990D01*
X71965777Y-29328979D01*
X71897924Y-29075744D01*
X71797595Y-28833528D01*
X71797590Y-28833517D01*
X71666511Y-28606483D01*
X71666505Y-28606475D01*
X71579918Y-28493633D01*
X71579917Y-28493633D01*
X70685231Y-29388320D01*
X70673503Y-29360005D01*
X70590330Y-29235528D01*
X70484472Y-29129670D01*
X70359995Y-29046497D01*
X70331677Y-29034767D01*
X71226365Y-28140080D01*
X71113524Y-28053494D01*
X71113516Y-28053488D01*
X70886482Y-27922409D01*
X70886471Y-27922404D01*
X70644255Y-27822075D01*
X70391020Y-27754222D01*
X70391009Y-27754220D01*
X70131094Y-27720000D01*
X69868905Y-27720000D01*
X69608990Y-27754220D01*
X69608979Y-27754222D01*
X69355744Y-27822075D01*
X69113528Y-27922404D01*
X69113517Y-27922409D01*
X68886471Y-28053496D01*
X68773633Y-28140079D01*
X68773633Y-28140080D01*
X69668321Y-29034768D01*
X69640005Y-29046497D01*
X69515528Y-29129670D01*
X69409670Y-29235528D01*
X69326497Y-29360005D01*
X69314768Y-29388321D01*
X68420080Y-28493633D01*
X68420079Y-28493633D01*
X68333496Y-28606471D01*
X68202409Y-28833517D01*
X68202404Y-28833528D01*
X68102075Y-29075744D01*
X68034222Y-29328979D01*
X68034220Y-29328990D01*
X68000000Y-29588905D01*
X58780603Y-29588905D01*
X58281819Y-29090121D01*
X58248334Y-29028798D01*
X58245500Y-29002440D01*
X58245500Y-24319098D01*
X58265185Y-24252059D01*
X58294014Y-24220722D01*
X58347192Y-24179917D01*
X58441851Y-24107282D01*
X58441859Y-24107274D01*
X58504850Y-24044284D01*
X58627274Y-23921860D01*
X58627277Y-23921855D01*
X58627282Y-23921851D01*
X58786924Y-23713803D01*
X58918043Y-23486697D01*
X59018398Y-23244419D01*
X59086270Y-22991116D01*
X59120500Y-22731120D01*
X59120500Y-22468905D01*
X60200000Y-22468905D01*
X60200000Y-22731094D01*
X60234220Y-22991009D01*
X60234222Y-22991020D01*
X60302075Y-23244255D01*
X60402404Y-23486471D01*
X60402409Y-23486482D01*
X60533488Y-23713516D01*
X60533494Y-23713524D01*
X60620080Y-23826365D01*
X61514767Y-22931677D01*
X61526497Y-22959995D01*
X61609670Y-23084472D01*
X61715528Y-23190330D01*
X61840005Y-23273503D01*
X61868320Y-23285231D01*
X60973633Y-24179917D01*
X60973633Y-24179918D01*
X61086475Y-24266505D01*
X61086483Y-24266511D01*
X61313517Y-24397590D01*
X61313528Y-24397595D01*
X61555744Y-24497924D01*
X61808979Y-24565777D01*
X61808990Y-24565779D01*
X62068905Y-24599999D01*
X62068920Y-24600000D01*
X62331080Y-24600000D01*
X62331094Y-24599999D01*
X62591009Y-24565779D01*
X62591020Y-24565777D01*
X62844255Y-24497924D01*
X63086471Y-24397595D01*
X63086482Y-24397590D01*
X63313516Y-24266511D01*
X63313534Y-24266499D01*
X63426365Y-24179919D01*
X63426365Y-24179917D01*
X62531679Y-23285231D01*
X62559995Y-23273503D01*
X62684472Y-23190330D01*
X62790330Y-23084472D01*
X62873503Y-22959995D01*
X62885231Y-22931679D01*
X63779917Y-23826365D01*
X63779919Y-23826365D01*
X63866499Y-23713534D01*
X63866511Y-23713516D01*
X63997590Y-23486482D01*
X63997595Y-23486471D01*
X64097924Y-23244255D01*
X64165777Y-22991020D01*
X64165779Y-22991009D01*
X64199999Y-22731094D01*
X64200000Y-22731080D01*
X64200000Y-22468919D01*
X64199999Y-22468905D01*
X64165779Y-22208990D01*
X64165777Y-22208979D01*
X64097924Y-21955744D01*
X63997595Y-21713528D01*
X63997590Y-21713517D01*
X63866511Y-21486483D01*
X63866505Y-21486475D01*
X63779918Y-21373633D01*
X63779917Y-21373633D01*
X62885231Y-22268320D01*
X62873503Y-22240005D01*
X62790330Y-22115528D01*
X62684472Y-22009670D01*
X62559995Y-21926497D01*
X62531677Y-21914767D01*
X63426365Y-21020080D01*
X63313524Y-20933494D01*
X63313516Y-20933488D01*
X63086482Y-20802409D01*
X63086471Y-20802404D01*
X62844255Y-20702075D01*
X62591020Y-20634222D01*
X62591009Y-20634220D01*
X62331094Y-20600000D01*
X62068905Y-20600000D01*
X61808990Y-20634220D01*
X61808979Y-20634222D01*
X61555744Y-20702075D01*
X61313528Y-20802404D01*
X61313517Y-20802409D01*
X61086471Y-20933496D01*
X60973633Y-21020079D01*
X60973633Y-21020080D01*
X61868321Y-21914768D01*
X61840005Y-21926497D01*
X61715528Y-22009670D01*
X61609670Y-22115528D01*
X61526497Y-22240005D01*
X61514768Y-22268321D01*
X60620080Y-21373633D01*
X60620079Y-21373633D01*
X60533496Y-21486471D01*
X60402409Y-21713517D01*
X60402404Y-21713528D01*
X60302075Y-21955744D01*
X60234222Y-22208979D01*
X60234220Y-22208990D01*
X60200000Y-22468905D01*
X59120500Y-22468905D01*
X59120500Y-22468880D01*
X59086270Y-22208884D01*
X59018398Y-21955581D01*
X58970523Y-21840000D01*
X58918046Y-21713309D01*
X58918041Y-21713299D01*
X58786924Y-21486196D01*
X58627281Y-21278148D01*
X58627274Y-21278140D01*
X58441860Y-21092726D01*
X58441851Y-21092718D01*
X58294013Y-20979276D01*
X58252810Y-20922848D01*
X58245500Y-20880901D01*
X58245500Y-20031421D01*
X58217786Y-19856445D01*
X58163042Y-19687958D01*
X58163042Y-19687957D01*
X58082613Y-19530109D01*
X57978483Y-19386786D01*
X57853214Y-19261517D01*
X55933214Y-17341517D01*
X55933213Y-17341516D01*
X55933211Y-17341514D01*
X55933206Y-17341510D01*
X55789893Y-17237388D01*
X55789892Y-17237387D01*
X55789890Y-17237386D01*
X55739320Y-17211619D01*
X55632042Y-17156957D01*
X55632039Y-17156956D01*
X55463557Y-17102214D01*
X55376067Y-17088357D01*
X55288579Y-17074500D01*
X31511421Y-17074500D01*
X31423933Y-17088357D01*
X31336442Y-17102214D01*
X31167960Y-17156956D01*
X31167957Y-17156957D01*
X31010110Y-17237385D01*
X30866785Y-17341516D01*
X27266786Y-20941517D01*
X27141519Y-21066783D01*
X27141519Y-21066784D01*
X27141517Y-21066786D01*
X27096796Y-21128338D01*
X27037386Y-21210109D01*
X26956957Y-21367957D01*
X26956956Y-21367960D01*
X26902214Y-21536443D01*
X26874500Y-21711421D01*
X22278842Y-21711421D01*
X22278842Y-16124270D01*
X22298527Y-16057231D01*
X22351331Y-16011476D01*
X22402842Y-16000270D01*
X80495008Y-16000270D01*
X80562047Y-16019955D01*
G37*
%TD.AperFunction*%
%TD*%
M02*
