M48
; DRILL file {KiCad 9.0.0} date 2025-04-27T22:36:35-0500
; FORMAT={-:-/ absolute / metric / decimal}
; #@! TF.CreationDate,2025-04-27T22:36:35-05:00
; #@! TF.GenerationSoftware,Kicad,Pcbnew,9.0.0
; #@! TF.FileFunction,Plated,1,2,PTH
FMAT,2
METRIC
; #@! TA.AperFunction,Plated,PTH,ComponentDrill
T1C1.520
%
G90
G05
T1
X34.2Y-31.5
X34.2Y-36.58
X34.2Y-41.66
X34.2Y-46.74
X34.2Y-51.82
X34.2Y-56.9
X34.2Y-64.92
X34.2Y-70.0
X34.2Y-75.08
X34.2Y-80.16
X34.2Y-85.24
X34.2Y-90.32
X34.2Y-95.4
X34.2Y-100.48
X41.88Y-22.6
X46.96Y-22.6
X52.04Y-22.6
X57.12Y-22.6
X62.2Y-22.6
X70.0Y-29.72
X70.0Y-34.8
X70.0Y-42.0
X70.0Y-47.08
X70.0Y-52.16
X70.0Y-57.24
X70.0Y-62.32
X70.0Y-67.4
X70.2Y-75.2
X70.2Y-80.28
X70.2Y-85.36
X70.2Y-90.44
X70.2Y-95.52
X70.2Y-100.6
M30
